<svg width="82" height="82" viewBox="0 0 82 82" fill="none" xmlns="http://www.w3.org/2000/svg">
<path d="M50.1366 42.1982H8.11694V73.8415H50.1366V42.1982Z" fill="#F1F9F7"/>
<path d="M8.9839 72.7284V72.9784H9.2339H49.0197H49.2697V72.7284V43.3567V43.1067H49.0197H9.2339H8.9839V43.3567V72.7284ZM50.1366 74.75H8.11695C7.63345 74.75 7.25 74.3662 7.25 73.8642V42.2209C7.25 41.719 7.63345 41.3351 8.11695 41.3351H50.1366C50.6201 41.3351 51.0036 41.719 51.0036 42.2209V73.8642C51.0036 74.3467 50.6169 74.75 50.1366 74.75Z" fill="#343836" stroke="white" stroke-width="0.5"/>
<path d="M73.883 42.1982H50.1367V73.8415H73.883V42.1982Z" fill="#F1F9F7"/>
<path d="M51.0036 72.7284V72.9784H51.2536H72.7661H73.0161V72.7284V43.3567V43.1067H72.7661H51.2536H51.0036V43.3567V72.7284ZM73.883 74.75H50.1367C49.6532 74.75 49.2697 74.3662 49.2697 73.8642V42.2209C49.2697 41.719 49.6532 41.3351 50.1367 41.3351H73.883C74.3665 41.3351 74.75 41.719 74.75 42.2209V73.8642C74.75 74.3467 74.3633 74.75 73.883 74.75Z" fill="#343836" stroke="white" stroke-width="0.5"/>
<path d="M8.9839 41.0624V41.3124H9.2339H49.0197H49.2697V41.0624V34.1795V33.9295H49.0197H9.2339H8.9839V34.1795V41.0624ZM50.1366 43.0839H8.11695C7.63345 43.0839 7.25 42.7001 7.25 42.1982V33.0437C7.25 32.5418 7.63345 32.1579 8.11695 32.1579H50.1366C50.6201 32.1579 51.0036 32.5418 51.0036 33.0437V42.1982C51.0036 42.7001 50.6201 43.0839 50.1366 43.0839Z" fill="#343836" stroke="white" stroke-width="0.5"/>
<path d="M24.0309 42.1653V33.2186H30.7378V42.2262L24.0309 42.1653Z" fill="#099A71" stroke="#343836"/>
<path d="M51.0036 41.0624V41.3124H51.2536H72.7661H73.0161V41.0624V34.1795V33.9295H72.7661H51.2536H51.0036V34.1795V41.0624ZM73.883 43.0839H50.1367C49.6532 43.0839 49.2697 42.7001 49.2697 42.1982V33.0437C49.2697 32.5418 49.6532 32.1579 50.1367 32.1579H73.883C74.3665 32.1579 74.75 32.5418 74.75 33.0437V42.1982C74.75 42.7001 74.3665 43.0839 73.883 43.0839Z" fill="#343836" stroke="white" stroke-width="0.5"/>
<path d="M38.3192 33.9294C38.1831 33.9294 38.0709 33.9092 37.9858 33.8659L37.9745 33.8608C36.8607 30.9815 40.6015 27.1058 42.5682 25.1811C44.553 23.2386 46.7259 21.9669 48.7928 21.6146C56.2699 20.3889 55.1587 30.0917 49.6768 32.393C47.2805 33.3989 44.1712 33.9521 40.5531 33.9521C40.1229 33.9521 39.7749 33.6377 39.7049 33.2288L39.5959 32.591L40.1649 32.2604C40.2813 32.1928 40.4163 32.1578 40.5531 32.1578C44.3306 32.1578 47.1647 31.5636 49.1843 30.6772C51.4142 29.3437 52.2453 27.5579 52.5178 26.1013C52.8086 24.5473 51.4718 23.2986 49.8908 23.2986C49.6291 23.2986 49.3693 23.3229 49.0897 23.3703C47.6754 23.608 46.0031 24.5081 44.3692 25.9568C42.2448 27.8404 40.7181 30.193 39.4214 32.6924L39.4816 32.6574L39.2342 33.1607C39.2103 33.2093 39.1909 33.2591 39.177 33.2952L39.17 33.3131C39.1532 33.3558 39.1444 33.3738 39.1377 33.384L39.1262 33.4016L39.1177 33.421C38.982 33.7314 38.6527 33.9294 38.3192 33.9294Z" fill="#343836"/>
<path d="M37.9858 33.8659C38.0709 33.9092 38.1831 33.9294 38.3192 33.9294C38.6527 33.9294 38.982 33.7314 39.1177 33.421L39.1262 33.4016L39.1377 33.384C39.1444 33.3738 39.1532 33.3558 39.17 33.3131C39.1721 33.3076 39.1745 33.3016 39.177 33.2952C39.1909 33.2591 39.2103 33.2093 39.2342 33.1607L39.4816 32.6574L39.4214 32.6924C40.7181 30.193 42.2448 27.8404 44.3692 25.9568C46.0031 24.5081 47.6754 23.608 49.0897 23.3703C49.3693 23.3229 49.6291 23.2986 49.8908 23.2986V23.2986C51.4718 23.2986 52.8086 24.5473 52.5178 26.1013C52.2453 27.5579 51.4142 29.3437 49.1843 30.6772C47.1647 31.5636 44.3306 32.1578 40.5531 32.1578C40.4163 32.1578 40.2813 32.1928 40.1649 32.2604L39.5959 32.591L39.7049 33.2288C39.7749 33.6377 40.1229 33.9521 40.5531 33.9521C44.1712 33.9521 47.2805 33.3989 49.6768 32.393C55.1587 30.0917 56.2699 20.3889 48.7928 21.6146C46.7259 21.9669 44.553 23.2386 42.5682 25.1811C40.6015 27.1058 36.8607 30.9815 37.9745 33.8608M37.9858 33.8659L37.9745 33.8608M37.9858 33.8659C38.0541 33.8423 37.9745 33.8608 37.9745 33.8608" stroke="white" stroke-width="0.5"/>
<path d="M37.0982 33.403L37.0951 33.3956L37.0916 33.3883C37.0781 33.3608 37.0677 33.3343 37.0538 33.2985C37.0507 33.2907 37.0475 33.2824 37.044 33.2736C37.0273 33.231 37.0025 33.1694 36.9646 33.1115L36.6162 32.5801L36.5091 33.2064C36.4397 33.6121 36.0719 33.9297 35.6609 33.9297C32.0428 33.9297 28.9335 33.3765 26.5373 32.3706C24.1402 31.3644 22.4758 29.9142 21.7052 28.1295C20.9598 26.3968 21.2393 24.5495 22.4639 23.2185L22.4651 23.2172C23.7215 21.8313 25.421 21.2643 27.4213 21.5921C29.4882 21.9445 31.661 23.2162 33.6459 25.1587C35.6285 27.099 37.409 29.695 38.6929 32.6661V32.6662C38.8868 33.1142 38.6898 33.6446 38.2428 33.8369L38.221 33.8463L38.2013 33.8596C38.1281 33.9092 38.0314 33.9297 37.8948 33.9297C37.5637 33.9297 37.2353 33.7342 37.0982 33.403ZM31.867 25.9485C30.2328 24.5023 28.5605 23.6083 27.1467 23.3706C26.8664 23.3231 26.5844 23.2989 26.3456 23.2989C25.3166 23.2989 24.4228 23.6905 23.749 24.4244C22.9826 25.2543 22.8424 26.3379 23.3007 27.4172L23.3017 27.4194C23.8148 28.5965 25.0352 29.781 27.0518 30.6689C29.0713 31.5581 31.9055 32.1581 35.6833 32.1581C35.82 32.1581 35.955 32.1931 36.0714 32.2607L36.8123 32.6912L36.4192 31.9298C35.1212 29.4165 33.5053 27.3982 31.867 25.9485Z" fill="#343836" stroke="white" stroke-width="0.5"/>
<path d="M64.9179 42.2669V73.822H58.2109V42.2669H64.9179Z" fill="#099A71" stroke="#343836"/>
<path d="M32.6141 42.2668V74H25.9072V42.2668H32.6141Z" fill="#099A71" stroke="#343836"/>
<path d="M66.2175 33V42H59.5105V33H66.2175Z" fill="#099A71" stroke="#343836"/>
<path d="M50.7 42.18L7.5 42V47L50.7 44.18V42.18Z" fill="#343836"/>
<path d="M25.6705 8.72679L25.6708 8.72758L28.3065 14.7468C28.3065 14.7469 28.3066 14.7471 28.3066 14.7472C28.5111 15.2203 28.3026 15.7807 27.8507 15.9835C27.7022 16.0481 27.599 16.0801 27.4847 16.0801C27.1418 16.0801 26.8093 15.8788 26.6394 15.5161L24.0047 9.49964C24.0047 9.49951 24.0046 9.49938 24.0046 9.49926C23.7999 9.02581 24.0089 8.46445 24.4613 8.26203C24.9204 8.05665 25.47 8.26343 25.6705 8.72679Z" fill="#343836" stroke="white" stroke-width="0.4"/>
<path d="M8.05831 25.2826L8.05702 25.2818C7.61948 25.0409 7.44977 24.4575 7.69028 24.006C7.92821 23.5593 8.4975 23.3917 8.93568 23.6326C8.93589 23.6327 8.9361 23.6328 8.9363 23.633L14.6091 26.8128L14.6104 26.8135C15.048 27.0545 15.2177 27.6373 14.9772 28.0888L14.9763 28.0904C14.8121 28.4058 14.5037 28.5734 14.1708 28.5734C14.0284 28.5734 13.8817 28.5377 13.7287 28.4605L8.05831 25.2826Z" fill="#343836" stroke="white" stroke-width="0.4"/>
<path d="M63.0553 26.4908V26.4907L63.0528 26.4923C62.9124 26.5815 62.7506 26.6197 62.5793 26.6197C62.2752 26.6197 61.9795 26.4568 61.7892 26.1699C61.5324 25.7163 61.6637 25.1579 62.1046 24.8769L67.6418 21.4712C68.0832 21.2103 68.6299 21.3387 68.9079 21.7881C69.1667 22.2422 69.0357 22.8027 68.5941 23.0842L63.0553 26.4908Z" fill="#343836" stroke="white" stroke-width="0.4"/>
<path d="M48.6858 15.0796L48.6859 15.0794L48.6768 15.0753C48.2095 14.8662 47.977 14.3192 48.1755 13.8605L48.1772 13.8565L50.656 7.77093C50.8603 7.30137 51.3925 7.08194 51.8451 7.264C52.3103 7.47414 52.5413 8.01971 52.3433 8.47745L52.3432 8.47744L52.3416 8.48143L49.8624 14.568C49.8623 14.5682 49.8622 14.5683 49.8622 14.5685C49.713 14.9282 49.382 15.1488 49.0196 15.1488C48.9046 15.1488 48.7824 15.1287 48.6858 15.0796Z" fill="#343836" stroke="white" stroke-width="0.4"/>
</svg>
