<svg width="82" height="82" viewBox="0 0 82 82" fill="none" xmlns="http://www.w3.org/2000/svg">
<path d="M41.2006 13.7199L24.8837 19.1662H19.7518L41.2006 11.574V13.7199Z" fill="#C5C7C6"/>
<path d="M41.2006 13.7199L57.5174 19.1662H62.6493L41.2006 11.574V13.7199Z" fill="#C5C7C6"/>
<path d="M16.9295 42.0792H7.26346V64.2466H16.9295V42.0792Z" fill="white"/>
<path d="M16.9295 64.5286H7.26346C7.11121 64.5286 6.98495 64.4024 6.98495 64.2502V42.0828C6.98495 41.9305 7.11121 41.8043 7.26346 41.8043H16.9295C17.0818 41.8043 17.208 41.9305 17.208 42.0828V64.2502C17.208 64.4024 17.0818 64.5286 16.9295 64.5286ZM7.54197 63.9718H16.651V42.3612H7.54197V63.9718Z" fill="#343836"/>
<path d="M18.8382 35.2369H5.19879V42.0791H18.8382V35.2369Z" fill="white"/>
<path d="M18.8419 42.3574H5.20246C5.05021 42.3574 4.92395 42.2312 4.92395 42.079V35.2368C4.92395 35.0845 5.05021 34.9583 5.20246 34.9583H18.8419C18.9942 34.9583 19.1204 35.0845 19.1204 35.2368V42.079C19.1204 42.2349 18.9942 42.3574 18.8419 42.3574ZM5.47729 41.8006H18.5597V35.5152H5.47729V41.8006Z" fill="#343836"/>
<path d="M18.8382 64.2502H5.19879V67.7223H18.8382V64.2502Z" fill="white"/>
<path d="M18.8419 67.9998H5.20246C5.05021 67.9998 4.92395 67.8735 4.92395 67.7213V64.2502C4.92395 64.098 5.05021 63.9717 5.20246 63.9717H18.8419C18.9942 63.9717 19.1204 64.098 19.1204 64.2502V67.7213C19.1204 67.8735 18.9942 67.9998 18.8419 67.9998ZM5.47729 67.4429H18.5597V64.5286H5.47729V67.4429Z" fill="#343836"/>
<path d="M46.0131 42.0792H36.347V64.2466H46.0131V42.0792Z" fill="white"/>
<path d="M46.0131 64.5286H36.347C36.1948 64.5286 36.0685 64.4024 36.0685 64.2502V42.0828C36.0685 41.9305 36.1948 41.8043 36.347 41.8043H46.0131C46.1653 41.8043 46.2916 41.9305 46.2916 42.0828V64.2502C46.2916 64.4024 46.1653 64.5286 46.0131 64.5286ZM36.6256 63.9718H45.7346V42.3612H36.6256V63.9718Z" fill="#343836"/>
<path d="M47.9255 42.3574H34.2861C34.1339 42.3574 34.0076 42.2312 34.0076 42.079V35.2368C34.0076 35.0845 34.1339 34.9583 34.2861 34.9583H47.9255C48.0778 34.9583 48.204 35.0845 48.204 35.2368V42.079C48.204 42.2349 48.0815 42.3574 47.9255 42.3574ZM34.5646 41.8006H47.647V35.5152H34.5646V41.8006Z" fill="#343836"/>
<path d="M47.9255 67.9998H34.2861C34.1339 67.9998 34.0076 67.8735 34.0076 67.7213V64.2502C34.0076 64.098 34.1339 63.9717 34.2861 63.9717H47.9255C48.0778 63.9717 48.204 64.098 48.204 64.2502V67.7213C48.204 67.8735 48.0815 67.9998 47.9255 67.9998ZM34.5646 67.4429H47.647V64.5286H34.5646V67.4429Z" fill="#343836"/>
<path d="M75.0967 42.0792H65.4306V64.2466H75.0967V42.0792Z" fill="white"/>
<path d="M75.0967 64.5286H65.4306C65.2784 64.5286 65.1521 64.4024 65.1521 64.2502V42.0828C65.1521 41.9305 65.2784 41.8043 65.4306 41.8043H75.0967C75.249 41.8043 75.3752 41.9305 75.3752 42.0828V64.2502C75.3752 64.4024 75.2527 64.5286 75.0967 64.5286ZM65.7091 63.9718H74.8182V42.3612H65.7091V63.9718Z" fill="#343836"/>
<path d="M77.0092 35.2369H63.3697V42.0791H77.0092V35.2369Z" fill="white"/>
<path d="M77.0128 42.3574H63.3734C63.2212 42.3574 63.0949 42.2312 63.0949 42.079V35.2368C63.0949 35.0845 63.2212 34.9583 63.3734 34.9583H77.0128C77.1651 34.9583 77.2914 35.0845 77.2914 35.2368V42.079C77.2914 42.2349 77.1651 42.3574 77.0128 42.3574ZM63.6482 41.8006H76.7307V35.5152H63.6482V41.8006Z" fill="#343836"/>
<path d="M77.0092 64.2502H63.3697V67.7223H77.0092V64.2502Z" fill="white"/>
<path d="M77.0128 67.9998H63.3734C63.2212 67.9998 63.0949 67.8735 63.0949 67.7213V64.2502C63.0949 64.098 63.2212 63.9717 63.3734 63.9717H77.0128C77.1651 63.9717 77.2914 64.098 77.2914 64.2502V67.7213C77.2914 67.8735 77.1651 67.9998 77.0128 67.9998ZM63.6482 67.4429H76.7307V64.5286H63.6482V67.4429Z" fill="#343836"/>
<path d="M79.5454 35.516H2.45459C2.30234 35.516 2.17609 35.3897 2.17609 35.2375V32.8163C2.17609 32.664 2.30234 32.5378 2.45459 32.5378H79.5454C79.6977 32.5378 79.824 32.664 79.824 32.8163V35.2375C79.824 35.3897 79.6977 35.516 79.5454 35.516ZM2.7331 34.9589H79.2669V33.0948H2.7331V34.9589Z" fill="#343836"/>
<path d="M79.5454 21.8651H2.45459C2.30234 21.8651 2.17609 21.7388 2.17609 21.5865V19.1655C2.17609 19.0132 2.30234 18.887 2.45459 18.887H79.5454C79.6977 18.887 79.824 19.0132 79.824 19.1655V21.5865C79.824 21.7388 79.6977 21.8651 79.5454 21.8651ZM2.7331 21.308H79.2669V19.444H2.7331V21.308Z" fill="#343836"/>
<path d="M79.5454 70.4174H2.45459C2.30234 70.4174 2.17609 70.2911 2.17609 70.1389V67.7177C2.17609 67.5655 2.30234 67.4392 2.45459 67.4392H79.5454C79.6977 67.4392 79.824 67.5655 79.824 67.7177V70.1389C79.824 70.2949 79.6977 70.4174 79.5454 70.4174ZM2.7331 69.8604H79.2669V67.9962H2.7331V69.8604Z" fill="#343836"/>
<path d="M81.7215 72.838H0.278507C0.126257 72.838 0 72.7117 0 72.5595V70.1383C0 69.9861 0.126257 69.8598 0.278507 69.8598H81.7215C81.8737 69.8598 82 69.9861 82 70.1383V72.5595C82 72.7117 81.8737 72.838 81.7215 72.838ZM0.557015 72.281H81.443V70.4168H0.557015V72.281Z" fill="#343836"/>
<path d="M77.0091 21.5859H5.19879V32.82H77.0091V21.5859Z" fill="#099A71"/>
<path d="M77.0128 33.0947H5.20246C5.05021 33.0947 4.92395 32.9685 4.92395 32.8163V21.5823C4.92395 21.4301 5.05021 21.3038 5.20246 21.3038H77.0128C77.1651 21.3038 77.2913 21.4301 77.2913 21.5823V32.8163C77.2913 32.9722 77.1651 33.0947 77.0128 33.0947ZM5.47729 32.5378H76.7306V21.8607H5.47729V32.5378Z" fill="#343836"/>
<path d="M71.814 19.4439H10.1896C10.0522 19.4439 9.93708 19.3473 9.9148 19.2136C9.89252 19.08 9.9705 18.95 10.0968 18.9055L41.089 8.01671C41.1485 7.99443 41.2153 7.99443 41.2747 8.01671L71.9068 18.9055C72.0331 18.95 72.1111 19.08 72.0888 19.2136C72.0628 19.3436 71.9477 19.4439 71.814 19.4439ZM11.8198 18.887H70.1987L41.1819 8.56987L11.8198 18.887Z" fill="#343836"/>
<path d="M56.5184 19.1654L41.2005 13.7191L25.7044 19.1654" fill="#343836"/>
<path d="M25.7972 19.429L25.6115 18.9018L41.1077 13.4555C41.1671 13.4333 41.2339 13.4333 41.2933 13.4555L56.6112 18.9018L56.4256 19.4253L41.2005 14.0124L25.7972 19.429Z" fill="#343836"/>
<path d="M40.248 42.3256H36.7182V63.8864H40.248V42.3256Z" fill="#C5C7C6"/>
<path d="M11.1644 42.3256H7.63464V63.8864H11.1644V42.3256Z" fill="#C5C7C6"/>
<path d="M69.3354 42.3256H65.8056V63.8864H69.3354V42.3256Z" fill="#C5C7C6"/>
<path d="M38.033 64.6103H34.6314V67.3582H38.033V64.6103Z" fill="#C5C7C6"/>
<path d="M38.033 38.9716H34.6314V41.7196H38.033V38.9716Z" fill="#C5C7C6"/>
<path d="M8.96419 38.9716H5.56271V41.7196H8.96419V38.9716Z" fill="#C5C7C6"/>
<path d="M67.1314 64.6103H63.7299V67.3582H67.1314V64.6103Z" fill="#C5C7C6"/>
<path d="M67.1314 38.9716H63.7299V41.7196H67.1314V38.9716Z" fill="#C5C7C6"/>
<path d="M8.96419 64.6103H5.56271V67.3582H8.96419V64.6103Z" fill="#C5C7C6"/>
<path d="M47.9256 35.2369H34.2861V40.0484L47.9256 36.7219V35.2369Z" fill="#343836"/>
<path d="M34.2861 40.3267C34.223 40.3267 34.1636 40.3044 34.1153 40.2672C34.0485 40.2153 34.0076 40.1336 34.0076 40.0483V35.2368C34.0076 35.0845 34.1339 34.9583 34.2861 34.9583H47.9255C48.0778 34.9583 48.204 35.0845 48.204 35.2368V36.7218C48.204 36.8517 48.1149 36.9631 47.9924 36.9928L34.3529 40.3193C34.3306 40.323 34.3084 40.3267 34.2861 40.3267ZM34.5646 35.5152V39.6918L47.647 36.5028V35.5152H34.5646Z" fill="#343836"/>
<path d="M18.8419 35.2369H5.19879V40.0484L18.8419 36.7219V35.2369Z" fill="#343836"/>
<path d="M5.19883 40.3267C5.1357 40.3267 5.07625 40.3044 5.02798 40.2672C4.96114 40.2153 4.92032 40.1336 4.92032 40.0483V35.2368C4.92032 35.0845 5.04658 34.9583 5.19883 34.9583H18.8383C18.9905 34.9583 19.1168 35.0845 19.1168 35.2368V36.7218C19.1168 36.8517 19.0276 36.9631 18.9051 36.9928L5.26564 40.3193C5.24336 40.323 5.22111 40.3267 5.19883 40.3267ZM5.47733 35.5152V39.6918L18.5598 36.5028V35.5152H5.47733Z" fill="#343836"/>
<path d="M77.0128 35.2369H63.3697V40.0484L77.0128 36.7219V35.2369Z" fill="#343836"/>
<path d="M63.3697 40.3267C63.3066 40.3267 63.2472 40.3044 63.1989 40.2672C63.1321 40.2153 63.0912 40.1336 63.0912 40.0483V35.2368C63.0912 35.0845 63.2175 34.9583 63.3697 34.9583H77.0092C77.1615 34.9583 77.2877 35.0845 77.2877 35.2368V36.7218C77.2877 36.8517 77.1986 36.9631 77.076 36.9928L63.4366 40.3193C63.4143 40.323 63.392 40.3267 63.3697 40.3267ZM63.6482 35.5152V39.6918L76.7307 36.5028V35.5152H63.6482Z" fill="#343836"/>
<path d="M79.1852 68.9576H2.79987V69.7782H79.1852V68.9576Z" fill="#C5C7C6"/>
<path d="M81.3613 71.3745H0.62384V72.1951H81.3613V71.3745Z" fill="#C5C7C6"/>
<path d="M38.1778 25.6667V24.2556H40.4615V26.5467H39.9491L38.6902 25.2805L38.6271 25.2173L38.1778 25.6667Z" fill="white"/>
<path d="M37.0117 27.0851L38.627 25.4623L40.2387 27.0851L39.8785 27.449H38.0069V28.0803L37.0117 27.0851Z" fill="white"/>
<path d="M38.1778 29.91H39.5889L39.2027 29.5238L39.1395 29.4644L40.4615 28.1349V27.6224H38.1778V29.91Z" fill="white"/>
<path d="M40.9999 31.0796L39.3846 29.4643L40.9999 27.8452L41.3639 28.2091V30.0844H41.9952L40.9999 31.0796Z" fill="white"/>
<path d="M43.8222 29.91H41.5385V27.6224H42.0546L43.3134 28.8851L43.3766 28.9482L43.436 28.8851L43.8222 28.4988V29.91Z" fill="white"/>
<path d="M44.9882 27.0851L43.3766 28.7005L41.7612 27.0851L42.1251 26.7175H43.9967V26.0862L44.9882 27.0851Z" fill="white"/>
<path d="M43.8222 24.2556V26.5467H41.5385V26.0269L42.7973 24.7642L42.8604 24.7049L42.7973 24.6418L42.4148 24.2556H43.8222Z" fill="white"/>
<path d="M42.6152 24.7049L40.9999 26.3202L40.636 25.9563V24.0811H40.0085L40.9999 23.0858L42.6152 24.7049Z" fill="white"/>
</svg>
