<svg width="82" height="82" viewBox="0 0 82 82" fill="none" xmlns="http://www.w3.org/2000/svg">
<path d="M44.6504 51.1354C37.5815 59.8493 27.4839 64.234 22.0933 65.5844L17.2306 61.6386C17.4251 56.1314 19.5814 45.3446 26.7003 36.5696C36.9757 23.91 49.2796 22.3707 52.4862 22.1873C52.9585 22.1596 53.3753 22.4818 53.4754 22.9431C54.12 25.9885 55.5983 37.6478 44.6504 51.1354Z" fill="white"/>
<path d="M22.0933 65.8622C22.0321 65.8622 21.9654 65.84 21.921 65.8011L17.0583 61.8498C16.9917 61.7942 16.9528 61.7109 16.9583 61.622C17.1917 55.1143 19.8259 44.6 26.4891 36.3863C36.759 23.7378 48.974 22.0984 52.4751 21.8983C53.0864 21.865 53.6254 22.2707 53.7532 22.8709C54.4423 26.1274 55.8372 37.7977 44.8727 51.302C38.215 59.5101 28.4786 64.2617 22.1711 65.8456C22.1377 65.8622 22.1155 65.8622 22.0933 65.8622ZM17.5141 61.5108L22.16 65.2843C28.3897 63.6893 37.9038 59.0101 44.4336 50.9631L44.6504 51.1409L44.4336 50.9631C55.2426 37.6478 53.8755 26.1886 53.2031 22.9987C53.1364 22.6708 52.8418 22.4596 52.5028 22.4652C49.0629 22.6597 37.0424 24.2713 26.917 36.7474C20.3872 44.7889 17.7752 55.0755 17.5141 61.5108Z" fill="#343836"/>
<path d="M4.63779 65.3564C4.57666 65.3564 4.51553 65.3343 4.46551 65.2954L3.10397 64.1895C3.01505 64.1172 2.97615 63.9949 3.01506 63.8838C3.06507 63.7337 8.04997 49.0568 19.4369 49.9015C19.5202 49.9071 19.6036 49.9516 19.6481 50.0239C19.6981 50.0961 19.7092 50.185 19.6814 50.2684C19.6592 50.3239 17.6975 56.0757 17.5085 61.6386C17.503 61.7442 17.4418 61.8386 17.3473 61.8831C17.2529 61.9275 17.1362 61.9108 17.0584 61.8441C13.9963 59.36 13.0627 59.9603 5.79371 64.6562L4.79339 65.3009C4.74338 65.3398 4.6878 65.3564 4.63779 65.3564ZM3.60413 63.8782L4.65446 64.7341L5.48805 64.195C12.4125 59.7269 13.9074 58.7599 16.975 61.0829C17.2251 56.4036 18.6255 51.7244 19.0368 50.4351C9.00028 49.9905 4.20432 62.2388 3.60413 63.8782Z" fill="#343836"/>
<path d="M18.8089 51.1909C10.1673 51.4965 5.57141 60.2604 3.93201 64.1505L4.13762 64.3228C4.13762 64.3228 10.1617 53.1082 18.3866 52.6469L18.8089 51.1909Z" fill="#A1A3A2"/>
<path d="M22.0933 65.5843C25.4554 68.313 24.7774 69.5689 21.3152 78.6162L22.6768 79.7221C22.6768 79.7221 35.9977 71.9696 32.8522 61.0884C32.8522 61.0884 27.6061 64.2339 22.0933 65.5843Z" fill="#A1A3A2"/>
<path d="M22.6768 80C22.6157 80 22.5545 79.9777 22.5045 79.9388L21.143 78.8329C21.0485 78.7551 21.0152 78.6272 21.0596 78.5161L21.4875 77.4046C24.5885 69.3243 24.9831 68.2852 21.921 65.801C21.8376 65.7344 21.8043 65.6288 21.8265 65.5232C21.8488 65.4176 21.9266 65.3398 22.0322 65.3121C27.4394 63.9839 32.6633 60.8773 32.7133 60.8495C32.7855 60.8051 32.8745 60.7995 32.9578 60.8273C33.0356 60.8606 33.0967 60.9272 33.1245 61.0106C36.2922 71.9696 22.9547 79.8832 22.8213 79.961C22.7768 79.9888 22.7268 80 22.6768 80ZM21.6487 78.5272L22.699 79.3831C24.1828 78.4606 35.1863 71.2305 32.68 61.5108C31.5018 62.1777 27.2171 64.5118 22.6879 65.7233C25.5888 68.2519 24.9553 69.9134 22.0044 77.6103L21.6487 78.5272Z" fill="#343836"/>
<path d="M52.4807 22.4651C52.9252 22.4485 53.1642 22.6986 53.2642 23.1932C53.8644 26.2553 55.3927 37.4699 44.4448 50.963C37.3759 59.6769 27.5506 63.9449 22.16 65.2898L18.7645 62.5334C18.7645 62.5334 30.4293 60.616 42.3886 47.8564C50.8801 38.7814 53.3365 26.8832 52.4807 22.4651Z" fill="#C5C7C6"/>
<path d="M36.5089 50.2629C40.3608 50.2629 43.4834 47.1403 43.4834 43.2884C43.4834 39.4365 40.3608 36.314 36.5089 36.314C32.6571 36.314 29.5345 39.4365 29.5345 43.2884C29.5345 47.1403 32.6571 50.2629 36.5089 50.2629Z" fill="#C5C7C6"/>
<path d="M36.4645 49.3625C40.0463 49.3625 42.9498 46.459 42.9498 42.8772C42.9498 39.2954 40.0463 36.3918 36.4645 36.3918C32.8827 36.3918 29.9791 39.2954 29.9791 42.8772C29.9791 46.459 32.8827 49.3625 36.4645 49.3625Z" fill="white"/>
<path d="M36.4534 49.6459C34.9084 49.6459 33.4191 49.118 32.202 48.1343C30.8016 46.9951 29.9235 45.3779 29.7346 43.5829C29.5456 41.7879 30.0736 40.0207 31.2128 38.6203C32.3521 37.2199 33.9692 36.3417 35.7643 36.1528C37.5648 35.9694 39.3265 36.4918 40.7269 37.6311C43.6223 39.9818 44.0669 44.2498 41.7161 47.1451C40.5769 48.5456 38.9597 49.4237 37.1647 49.6127C36.9257 49.6349 36.6868 49.6459 36.4534 49.6459ZM36.4756 36.6697C36.2589 36.6697 36.0421 36.6807 35.8198 36.7029C34.1693 36.8752 32.6855 37.6755 31.6407 38.9648C30.596 40.2541 30.1125 41.8712 30.2848 43.5217C30.457 45.1723 31.2573 46.6561 32.5466 47.7009C33.8359 48.7456 35.4475 49.2292 37.1036 49.0569C38.7541 48.8847 40.2379 48.0844 41.2827 46.7951C43.4389 44.1387 43.0332 40.2208 40.3768 38.0646C39.2598 37.1532 37.8983 36.6697 36.4756 36.6697Z" fill="#343836"/>
<path d="M36.4645 46.8506C38.659 46.8506 40.4379 45.0717 40.4379 42.8772C40.4379 40.6827 38.659 38.9037 36.4645 38.9037C34.27 38.9037 32.491 40.6827 32.491 42.8772C32.491 45.0717 34.27 46.8506 36.4645 46.8506Z" fill="#343836"/>
<path d="M36.4589 47.1285C35.5197 47.1285 34.5694 46.8173 33.7859 46.1782C31.9631 44.7 31.6852 42.0158 33.1634 40.1985C34.6417 38.3813 37.3259 38.0979 39.1431 39.5762C40.9659 41.0544 41.2438 43.7386 39.7655 45.5559C38.9264 46.5951 37.6982 47.1285 36.4589 47.1285ZM36.47 39.1872C35.3919 39.1872 34.3249 39.654 33.5969 40.5543C32.3132 42.1381 32.5577 44.4665 34.136 45.7503C35.7198 47.034 38.0483 46.7951 39.3376 45.2112C40.6213 43.6274 40.3768 41.299 38.7985 40.0152C38.1094 39.454 37.287 39.1872 36.47 39.1872Z" fill="#343836"/>
<path d="M5.78007 76.2668C5.78596 76.082 5.79515 75.8624 5.80942 75.6147C5.85523 74.8195 5.9533 73.7376 6.16193 72.5881C6.3708 71.4374 6.689 70.2275 7.17149 69.1723C7.65491 68.1151 8.29375 67.2341 9.13211 66.7122C10.9204 65.5992 12.384 65.2352 13.5301 65.1086C14.0666 65.0493 14.5353 65.0417 14.9464 65.035C14.9769 65.0345 15.0071 65.034 15.0369 65.0335C15.3958 65.0274 15.7296 65.0197 16.012 64.9624L18.0519 66.8771C18.0461 69.734 17.81 71.2862 17.1522 72.2666C16.4965 73.2438 15.3893 73.6997 13.4411 74.2568C12.2275 74.4984 11.3447 74.4604 10.5595 74.4194C10.5341 74.4181 10.5088 74.4168 10.4835 74.4154C9.72624 74.3756 9.02639 74.3388 8.2245 74.5884C7.47665 74.8212 6.74902 75.3731 6.2215 75.8466C6.05524 75.9958 5.90634 76.1395 5.78007 76.2668Z" fill="url(#paint0_linear)" stroke="#343836" stroke-width="0.5"/>
<path d="M65.1969 24.9949V24.995C65.1969 25.1548 65.3237 25.2816 65.4835 25.2816C65.6445 25.2816 65.77 25.1498 65.7701 24.9951C65.7775 18.8519 71.0465 13.8457 77.5203 13.8457C77.68 13.8457 77.8069 13.7188 77.8069 13.559C77.8069 13.3993 77.68 13.2724 77.5203 13.2724C74.2989 13.2724 71.1782 11.9985 68.9619 9.77846C66.8973 7.71021 65.7664 5.01457 65.7701 2.18675V2.18662C65.7701 2.02688 65.6432 1.9 65.4835 1.9C65.3238 1.9 65.1969 2.02682 65.1969 2.1865C65.1895 8.29625 59.9577 13.2724 53.525 13.2724C53.3653 13.2724 53.2384 13.3993 53.2384 13.559C53.2384 13.7188 53.3653 13.8457 53.525 13.8457C56.7462 13.8457 59.7438 15.0747 61.9715 17.3024C64.0546 19.3892 65.2006 22.1222 65.1969 24.9949ZM68.5553 10.181L68.5553 10.181C70.2489 11.8781 72.4435 13.0464 74.8145 13.5552C70.1803 14.5496 66.5166 18.0419 65.4881 22.4692C65.0134 20.3904 63.9491 18.4672 62.3779 16.896C60.6828 15.1974 58.5589 14.0553 56.2326 13.5551C60.8313 12.5616 64.4602 9.0901 65.4797 4.69412C65.9535 6.7371 67.0063 8.62842 68.5553 10.181Z" fill="#343836" stroke="#343836" stroke-width="0.2"/>
<path d="M40.6585 14.2918L40.6587 14.292C41.164 14.794 41.782 15.1797 42.4572 15.4193C41.1571 15.8822 40.1223 16.8728 39.6437 18.1197C39.422 17.5355 39.0741 16.9967 38.6127 16.5353C38.1087 16.0313 37.5094 15.6541 36.8525 15.4189C38.1399 14.9568 39.1649 13.9726 39.6395 12.7352C39.8603 13.3089 40.2042 13.8375 40.6585 14.2918ZM39.3527 19.6777C39.3527 19.8375 39.4796 19.9643 39.6393 19.9643C39.7977 19.9643 39.9269 19.8384 39.9222 19.6762C39.9268 17.4901 41.8026 15.7058 44.1181 15.7058C44.2779 15.7058 44.4048 15.5789 44.4048 15.4191C44.4048 15.2594 44.2779 15.1325 44.1181 15.1325C42.9682 15.1325 41.8518 14.6759 41.0611 13.8853C40.3255 13.1496 39.9259 12.1896 39.9259 11.1866C39.9259 11.0269 39.799 10.9 39.6393 10.9C39.4796 10.9 39.3528 11.0268 39.3527 11.1865C39.3491 13.3548 37.484 15.1325 35.1866 15.1325C35.0269 15.1325 34.9 15.2594 34.9 15.4191C34.9 15.5789 35.0269 15.7058 35.1866 15.7058C36.3363 15.7058 37.408 16.1471 38.2025 16.9417C38.9457 17.6849 39.3527 18.6562 39.3527 19.6777Z" fill="#343836" stroke="#343836" stroke-width="0.2"/>
<path d="M60.2618 37.3179L60.262 37.3181C60.7736 37.8297 61.0501 38.4949 61.0501 39.1957C61.0501 39.3554 61.177 39.4823 61.3367 39.4823C61.4964 39.4823 61.6232 39.3555 61.6233 39.1959C61.6269 37.6995 62.9171 36.4703 64.5092 36.4703C64.6689 36.4703 64.7958 36.3434 64.7958 36.1837C64.7958 36.024 64.6689 35.8971 64.5092 35.8971C63.7139 35.8971 62.9483 35.5824 62.404 35.038C61.8996 34.5336 61.6233 33.8759 61.6233 33.1866C61.6233 33.0269 61.4964 32.9 61.3367 32.9C61.177 32.9 61.0501 33.0269 61.0501 33.1866C61.0501 34.6753 59.7675 35.8971 58.1866 35.8971C58.0269 35.8971 57.9 36.024 57.9 36.1837C57.9 36.3434 58.0269 36.4703 58.1866 36.4703C58.9784 36.4703 59.7177 36.7702 60.2618 37.3179ZM62.0009 35.444L62.0013 35.4444C62.3161 35.7592 62.6922 36.0094 63.1027 36.1839C62.318 36.5192 61.6867 37.1266 61.3406 37.8812C61.1796 37.5287 60.954 37.201 60.6684 36.9154C60.3551 36.6021 59.991 36.3551 59.5916 36.1835C60.3695 35.8488 60.9945 35.2451 61.3397 34.4972C61.4987 34.8444 61.7229 35.1629 62.0009 35.444Z" fill="#343836" stroke="#343836" stroke-width="0.2"/>
<defs>
<linearGradient id="paint0_linear" x1="20.8149" y1="77.564" x2="-49.3537" y2="98.2203" gradientUnits="userSpaceOnUse">
<stop offset="0.2696" stop-color="#099A71"/>
<stop offset="1" stop-color="#82CEB5"/>
</linearGradient>
</defs>
</svg>
