<svg width="545" height="246" viewBox="0 0 545 246" fill="none" xmlns="http://www.w3.org/2000/svg">
<path d="M133.973 145.964C133.559 145.964 133.207 145.82 132.917 145.53C132.627 145.241 132.482 144.89 132.482 144.477V112.5L123.1 119.688C122.851 119.895 122.54 119.998 122.167 119.998C121.67 119.998 121.277 119.792 120.987 119.378L118.315 115.908C118.108 115.619 118.004 115.33 118.004 115.04C118.004 114.545 118.232 114.132 118.688 113.801L132.606 103.018C133.062 102.729 133.58 102.584 134.16 102.584H139.752C140.166 102.584 140.518 102.729 140.808 103.018C141.098 103.307 141.243 103.658 141.243 104.072V144.477C141.243 144.89 141.098 145.241 140.808 145.53C140.518 145.82 140.166 145.964 139.752 145.964H133.973Z" fill="#343836"/>
<path d="M164.66 146.646C161.222 146.646 158.239 146.067 155.712 144.911C153.227 143.754 151.342 142.225 150.058 140.325C148.774 138.424 148.091 136.379 148.008 134.19V134.066C148.008 133.735 148.132 133.467 148.38 133.26C148.67 133.012 148.981 132.888 149.313 132.888H155.215C156.168 132.888 156.769 133.301 157.017 134.128C157.597 135.945 158.55 137.288 159.876 138.156C161.243 139.023 162.837 139.457 164.66 139.457C166.98 139.457 168.885 138.755 170.376 137.35C171.909 135.945 172.676 134.004 172.676 131.525C172.676 129.294 171.909 127.497 170.376 126.133C168.885 124.729 166.98 124.026 164.66 124.026C163.417 124.026 162.402 124.192 161.615 124.522C160.828 124.853 160.062 125.307 159.316 125.885C159.234 125.927 159.047 126.051 158.757 126.257C158.467 126.464 158.198 126.608 157.949 126.691C157.742 126.774 157.514 126.815 157.266 126.815H151.425C151.052 126.815 150.721 126.691 150.431 126.443C150.182 126.154 150.058 125.823 150.058 125.452L152.171 104.319C152.212 103.782 152.399 103.369 152.73 103.08C153.103 102.75 153.538 102.584 154.035 102.584H177.398C177.853 102.584 178.206 102.729 178.454 103.018C178.744 103.266 178.889 103.617 178.889 104.072V108.286C178.889 108.699 178.744 109.05 178.454 109.339C178.206 109.628 177.853 109.773 177.398 109.773H159.441L158.446 119.812C159.399 119.193 160.497 118.697 161.74 118.325C162.982 117.912 164.598 117.705 166.586 117.705C169.279 117.705 171.764 118.284 174.043 119.44C176.362 120.556 178.206 122.188 179.573 124.336C180.981 126.443 181.685 128.901 181.685 131.711C181.685 134.727 180.981 137.371 179.573 139.643C178.164 141.874 176.176 143.609 173.608 144.849C171.039 146.047 168.057 146.646 164.66 146.646Z" fill="#343836"/>
<path d="M204.619 146.584C199.068 146.584 194.926 145.055 192.192 141.998C189.499 138.941 188.029 134.933 187.78 129.976C187.739 128.86 187.718 126.96 187.718 124.274C187.718 121.547 187.739 119.606 187.78 118.449C187.987 113.574 189.479 109.608 192.254 106.55C195.029 103.493 199.151 101.965 204.619 101.965C210.087 101.965 214.209 103.493 216.984 106.55C219.759 109.608 221.251 113.574 221.458 118.449C221.541 120.763 221.582 122.704 221.582 124.274C221.582 125.844 221.541 127.745 221.458 129.976C221.209 134.933 219.718 138.941 216.984 141.998C214.292 145.055 210.17 146.584 204.619 146.584ZM204.619 139.333C207.187 139.333 209.114 138.507 210.398 136.854C211.682 135.161 212.365 132.764 212.448 129.666C212.49 128.468 212.51 126.629 212.51 124.15C212.51 121.671 212.49 119.874 212.448 118.759C212.365 115.743 211.682 113.388 210.398 111.694C209.114 110 207.187 109.133 204.619 109.091C202.051 109.133 200.125 110 198.84 111.694C197.556 113.388 196.873 115.743 196.79 118.759C196.749 119.874 196.728 121.671 196.728 124.15C196.728 126.629 196.749 128.468 196.79 129.666C196.873 132.764 197.556 135.161 198.84 136.854C200.125 138.507 202.051 139.333 204.619 139.333Z" fill="#343836"/>
<path d="M259.716 146.584C254.165 146.584 250.023 145.055 247.289 141.998C244.596 138.941 243.126 134.933 242.877 129.976C242.836 128.86 242.815 126.96 242.815 124.274C242.815 121.547 242.836 119.606 242.877 118.449C243.084 113.574 244.576 109.608 247.351 106.55C250.126 103.493 254.248 101.965 259.716 101.965C265.184 101.965 269.306 103.493 272.081 106.55C274.856 109.608 276.348 113.574 276.555 118.449C276.638 120.763 276.679 122.704 276.679 124.274C276.679 125.844 276.638 127.745 276.555 129.976C276.306 134.933 274.815 138.941 272.081 141.998C269.388 145.055 265.267 146.584 259.716 146.584ZM259.716 139.333C262.284 139.333 264.21 138.507 265.495 136.854C266.779 135.161 267.462 132.764 267.545 129.666C267.586 128.468 267.607 126.629 267.607 124.15C267.607 121.671 267.586 119.874 267.545 118.759C267.462 115.743 266.779 113.388 265.495 111.694C264.21 110 262.284 109.133 259.716 109.091C257.148 109.133 255.221 110 253.937 111.694C252.653 113.388 251.97 115.743 251.887 118.759C251.845 119.874 251.825 121.671 251.825 124.15C251.825 126.629 251.845 128.468 251.887 129.666C251.97 132.764 252.653 135.161 253.937 136.854C255.221 138.507 257.148 139.333 259.716 139.333Z" fill="#343836"/>
<path d="M300.674 146.584C295.124 146.584 290.981 145.055 288.247 141.998C285.555 138.941 284.084 134.933 283.836 129.976C283.794 128.86 283.774 126.96 283.774 124.274C283.774 121.547 283.794 119.606 283.836 118.449C284.043 113.574 285.534 109.608 288.309 106.55C291.085 103.493 295.207 101.965 300.674 101.965C306.142 101.965 310.264 103.493 313.039 106.55C315.815 109.608 317.306 113.574 317.513 118.449C317.596 120.763 317.638 122.704 317.638 124.274C317.638 125.844 317.596 127.745 317.513 129.976C317.265 134.933 315.773 138.941 313.039 141.998C310.347 145.055 306.225 146.584 300.674 146.584ZM300.674 139.333C303.243 139.333 305.169 138.507 306.453 136.854C307.737 135.161 308.421 132.764 308.504 129.666C308.545 128.468 308.566 126.629 308.566 124.15C308.566 121.671 308.545 119.874 308.504 118.759C308.421 115.743 307.737 113.388 306.453 111.694C305.169 110 303.243 109.133 300.674 109.091C298.106 109.133 296.18 110 294.896 111.694C293.612 113.388 292.928 115.743 292.845 118.759C292.804 119.874 292.783 121.671 292.783 124.15C292.783 126.629 292.804 128.468 292.845 129.666C292.928 132.764 293.612 135.161 294.896 136.854C296.18 138.507 298.106 139.333 300.674 139.333Z" fill="#343836"/>
<path d="M341.633 146.584C336.082 146.584 331.94 145.055 329.206 141.998C326.513 138.941 325.043 134.933 324.794 129.976C324.753 128.86 324.732 126.96 324.732 124.274C324.732 121.547 324.753 119.606 324.794 118.449C325.001 113.574 326.493 109.608 329.268 106.55C332.043 103.493 336.165 101.965 341.633 101.965C347.101 101.965 351.223 103.493 353.998 106.55C356.773 109.608 358.265 113.574 358.472 118.449C358.555 120.763 358.596 122.704 358.596 124.274C358.596 125.844 358.555 127.745 358.472 129.976C358.223 134.933 356.732 138.941 353.998 141.998C351.305 145.055 347.184 146.584 341.633 146.584ZM341.633 139.333C344.201 139.333 346.128 138.507 347.412 136.854C348.696 135.161 349.379 132.764 349.462 129.666C349.504 128.468 349.524 126.629 349.524 124.15C349.524 121.671 349.504 119.874 349.462 118.759C349.379 115.743 348.696 113.388 347.412 111.694C346.128 110 344.201 109.133 341.633 109.091C339.065 109.133 337.139 110 335.854 111.694C334.57 113.388 333.887 115.743 333.804 118.759C333.763 119.874 333.742 121.671 333.742 124.15C333.742 126.629 333.763 128.468 333.804 129.666C333.887 132.764 334.57 135.161 335.854 136.854C337.139 138.507 339.065 139.333 341.633 139.333Z" fill="#343836"/>
<g clip-path="url(#clip0)">
<path d="M411.823 110.022L411.725 105.402L408.374 107.053L408.28 110.043C395.233 111.281 384.947 125.216 384.947 142.247C384.947 143.348 384.989 144.431 385.074 145.496H389.641C389.599 144.716 389.569 143.927 389.569 143.126C389.569 127.676 397.738 114.997 408.161 113.639L407.234 142.664L412.537 140.187L411.912 113.659C422.309 115.047 430.457 127.697 430.457 143.139C430.457 143.94 430.428 144.728 430.385 145.509H435.233C435.314 144.439 435.356 143.353 435.356 142.259C435.36 125.129 424.972 111.128 411.823 110.022Z" fill="#343836"/>
</g>
<path d="M173.488 81.1261C173.297 81.1261 173.135 81.0593 173.001 80.9255C172.867 80.7918 172.8 80.6294 172.8 80.4383V65.6501L168.473 68.9746C168.358 69.0701 168.215 69.1179 168.043 69.1179C167.814 69.1179 167.632 69.0223 167.498 68.8313L166.266 67.2263C166.171 67.0926 166.123 66.9589 166.123 66.8251C166.123 66.5958 166.228 66.4048 166.438 66.2519L172.858 61.2652C173.068 61.1315 173.307 61.0646 173.574 61.0646H176.154C176.345 61.0646 176.507 61.1315 176.641 61.2652C176.775 61.3989 176.841 61.5613 176.841 61.7524V80.4383C176.841 80.6294 176.775 80.7918 176.641 80.9255C176.507 81.0593 176.345 81.1261 176.154 81.1261H173.488Z" fill="#343836" fill-opacity="0.4"/>
<path d="M180.821 81.1261C180.63 81.1261 180.468 81.0593 180.334 80.9255C180.2 80.7918 180.133 80.6294 180.133 80.4383V78.948C180.133 78.413 180.372 77.964 180.85 77.601L185.321 73.1588C186.677 72.0889 187.719 71.2195 188.445 70.5508C189.19 69.863 189.744 69.2325 190.107 68.6593C190.47 68.0861 190.651 67.5225 190.651 66.9684C190.651 66.0704 190.413 65.3635 189.935 64.8476C189.457 64.3318 188.731 64.0738 187.757 64.0738C186.801 64.0738 186.047 64.3604 185.493 64.9336C184.958 65.4877 184.623 66.2137 184.49 67.1117C184.432 67.341 184.318 67.5129 184.146 67.6276C183.993 67.7231 183.821 67.7709 183.63 67.7709H181.051C180.879 67.7709 180.735 67.7136 180.621 67.5989C180.506 67.4843 180.449 67.341 180.449 67.169C180.487 66.0418 180.793 64.9909 181.366 64.0165C181.958 63.023 182.799 62.2301 183.888 61.6378C184.977 61.0264 186.257 60.7207 187.728 60.7207C189.257 60.7207 190.556 60.9882 191.626 61.5231C192.696 62.039 193.498 62.7555 194.033 63.6726C194.568 64.5897 194.836 65.631 194.836 66.7965C194.836 68.0766 194.473 69.2421 193.747 70.2929C193.04 71.3246 191.932 72.4328 190.422 73.6174L186.438 77.6583H194.549C194.759 77.6583 194.931 77.7252 195.065 77.859C195.199 77.9927 195.266 78.1647 195.266 78.3748V80.4383C195.266 80.6485 195.199 80.8204 195.065 80.9542C194.931 81.0688 194.759 81.1261 194.549 81.1261H180.821Z" fill="#343836" fill-opacity="0.4"/>
<path d="M206.045 81.4127C203.485 81.4127 201.574 80.7058 200.313 79.2919C199.071 77.8781 198.393 76.0248 198.278 73.732C198.259 73.2161 198.249 72.3373 198.249 71.0954C198.249 69.8343 198.259 68.9364 198.278 68.4014C198.374 66.1468 199.062 64.3126 200.342 62.8988C201.622 61.4849 203.523 60.778 206.045 60.778C208.567 60.778 210.468 61.4849 211.748 62.8988C213.028 64.3126 213.716 66.1468 213.812 68.4014C213.85 69.4713 213.869 70.3693 213.869 71.0954C213.869 71.8214 213.85 72.7003 213.812 73.732C213.697 76.0248 213.009 77.8781 211.748 79.2919C210.506 80.7058 208.605 81.4127 206.045 81.4127ZM206.045 78.0596C207.229 78.0596 208.118 77.6775 208.71 76.9132C209.302 76.1298 209.618 75.0217 209.656 73.5887C209.675 73.0346 209.685 72.1844 209.685 71.038C209.685 69.8917 209.675 69.0605 209.656 68.5447C209.618 67.1499 209.302 66.0609 208.71 65.2775C208.118 64.4942 207.229 64.0929 206.045 64.0738C204.86 64.0929 203.972 64.4942 203.38 65.2775C202.787 66.0609 202.472 67.1499 202.434 68.5447C202.415 69.0605 202.405 69.8917 202.405 71.038C202.405 72.1844 202.415 73.0346 202.434 73.5887C202.472 75.0217 202.787 76.1298 203.38 76.9132C203.972 77.6775 204.86 78.0596 206.045 78.0596Z" fill="#343836" fill-opacity="0.4"/>
<path d="M231.458 81.4127C228.897 81.4127 226.987 80.7058 225.726 79.2919C224.484 77.8781 223.806 76.0248 223.691 73.732C223.672 73.2161 223.662 72.3373 223.662 71.0954C223.662 69.8343 223.672 68.9364 223.691 68.4014C223.786 66.1468 224.474 64.3126 225.754 62.8988C227.035 61.4849 228.936 60.778 231.458 60.778C233.98 60.778 235.881 61.4849 237.161 62.8988C238.441 64.3126 239.129 66.1468 239.224 68.4014C239.263 69.4713 239.282 70.3693 239.282 71.0954C239.282 71.8214 239.263 72.7003 239.224 73.732C239.11 76.0248 238.422 77.8781 237.161 79.2919C235.919 80.7058 234.018 81.4127 231.458 81.4127ZM231.458 78.0596C232.642 78.0596 233.531 77.6775 234.123 76.9132C234.715 76.1298 235.03 75.0217 235.069 73.5887C235.088 73.0346 235.097 72.1844 235.097 71.038C235.097 69.8917 235.088 69.0605 235.069 68.5447C235.03 67.1499 234.715 66.0609 234.123 65.2775C233.531 64.4942 232.642 64.0929 231.458 64.0738C230.273 64.0929 229.385 64.4942 228.792 65.2775C228.2 66.0609 227.885 67.1499 227.847 68.5447C227.827 69.0605 227.818 69.8917 227.818 71.038C227.818 72.1844 227.827 73.0346 227.847 73.5887C227.885 75.0217 228.2 76.1298 228.792 76.9132C229.385 77.6775 230.273 78.0596 231.458 78.0596Z" fill="#343836" fill-opacity="0.4"/>
<path d="M250.349 81.4127C247.789 81.4127 245.878 80.7058 244.617 79.2919C243.375 77.8781 242.697 76.0248 242.583 73.732C242.563 73.2161 242.554 72.3373 242.554 71.0954C242.554 69.8343 242.563 68.9364 242.583 68.4014C242.678 66.1468 243.366 64.3126 244.646 62.8988C245.926 61.4849 247.827 60.778 250.349 60.778C252.871 60.778 254.772 61.4849 256.052 62.8988C257.333 64.3126 258.02 66.1468 258.116 68.4014C258.154 69.4713 258.173 70.3693 258.173 71.0954C258.173 71.8214 258.154 72.7003 258.116 73.732C258.001 76.0248 257.313 77.8781 256.052 79.2919C254.811 80.7058 252.91 81.4127 250.349 81.4127ZM250.349 78.0596C251.534 78.0596 252.422 77.6775 253.015 76.9132C253.607 76.1298 253.922 75.0217 253.96 73.5887C253.979 73.0346 253.989 72.1844 253.989 71.038C253.989 69.8917 253.979 69.0605 253.96 68.5447C253.922 67.1499 253.607 66.0609 253.015 65.2775C252.422 64.4942 251.534 64.0929 250.349 64.0738C249.165 64.0929 248.276 64.4942 247.684 65.2775C247.092 66.0609 246.776 67.1499 246.738 68.5447C246.719 69.0605 246.71 69.8917 246.71 71.038C246.71 72.1844 246.719 73.0346 246.738 73.5887C246.776 75.0217 247.092 76.1298 247.684 76.9132C248.276 77.6775 249.165 78.0596 250.349 78.0596Z" fill="#343836" fill-opacity="0.4"/>
<path d="M269.241 81.4127C266.681 81.4127 264.77 80.7058 263.509 79.2919C262.267 77.8781 261.589 76.0248 261.474 73.732C261.455 73.2161 261.446 72.3373 261.446 71.0954C261.446 69.8343 261.455 68.9364 261.474 68.4014C261.57 66.1468 262.258 64.3126 263.538 62.8988C264.818 61.4849 266.719 60.778 269.241 60.778C271.763 60.778 273.664 61.4849 274.944 62.8988C276.224 64.3126 276.912 66.1468 277.008 68.4014C277.046 69.4713 277.065 70.3693 277.065 71.0954C277.065 71.8214 277.046 72.7003 277.008 73.732C276.893 76.0248 276.205 77.8781 274.944 79.2919C273.702 80.7058 271.801 81.4127 269.241 81.4127ZM269.241 78.0596C270.426 78.0596 271.314 77.6775 271.906 76.9132C272.499 76.1298 272.814 75.0217 272.852 73.5887C272.871 73.0346 272.881 72.1844 272.881 71.038C272.881 69.8917 272.871 69.0605 272.852 68.5447C272.814 67.1499 272.499 66.0609 271.906 65.2775C271.314 64.4942 270.426 64.0929 269.241 64.0738C268.056 64.0929 267.168 64.4942 266.576 65.2775C265.983 66.0609 265.668 67.1499 265.63 68.5447C265.611 69.0605 265.601 69.8917 265.601 71.038C265.601 72.1844 265.611 73.0346 265.63 73.5887C265.668 75.0217 265.983 76.1298 266.576 76.9132C267.168 77.6775 268.056 78.0596 269.241 78.0596Z" fill="#343836" fill-opacity="0.4"/>
<g clip-path="url(#clip1)">
<path d="M300.717 65.826L300.676 63.9273L299.295 64.606L299.257 65.8345C293.879 66.3435 289.639 72.0701 289.639 79.0693C289.639 79.5218 289.656 79.9669 289.692 80.4047H291.574C291.557 80.084 291.544 79.7599 291.544 79.4308C291.544 73.0814 294.911 67.8706 299.208 67.3124L298.825 79.2407L301.011 78.2226L300.754 67.3208C305.039 67.891 308.398 73.0899 308.398 79.4358C308.398 79.765 308.385 80.0891 308.368 80.4098H310.366C310.399 79.9703 310.417 79.5241 310.417 79.0744C310.419 72.0345 306.137 66.2807 300.717 65.826Z" fill="#343836" fill-opacity="0.4"/>
</g>
<path d="M199.142 244.782C198.979 244.782 198.839 244.725 198.725 244.61C198.61 244.496 198.553 244.356 198.553 244.193V241.051H190.771C190.607 241.051 190.468 240.993 190.354 240.879C190.239 240.764 190.182 240.625 190.182 240.461V238.768C190.182 238.506 190.272 238.26 190.452 238.031L197.694 228.015C197.776 227.884 197.898 227.786 198.062 227.721C198.226 227.639 198.406 227.598 198.602 227.598H201.303C201.483 227.598 201.622 227.655 201.72 227.77C201.834 227.868 201.892 228.007 201.892 228.187V238.129H204.101C204.281 238.129 204.42 238.187 204.518 238.301C204.633 238.399 204.69 238.538 204.69 238.718V240.461C204.69 240.625 204.633 240.764 204.518 240.879C204.42 240.993 204.281 241.051 204.101 241.051H201.892V244.193C201.892 244.356 201.834 244.496 201.72 244.61C201.622 244.725 201.483 244.782 201.303 244.782H199.142ZM193.643 238.227H198.627V231.182L193.643 238.227Z" fill="#343836" fill-opacity="0.2"/>
<path d="M213.56 245.027C211.367 245.027 209.731 244.422 208.65 243.211C207.587 242 207.006 240.412 206.908 238.448C206.891 238.007 206.883 237.254 206.883 236.19C206.883 235.11 206.891 234.341 206.908 233.882C206.989 231.951 207.579 230.38 208.675 229.169C209.772 227.958 211.4 227.352 213.56 227.352C215.721 227.352 217.349 227.958 218.445 229.169C219.542 230.38 220.131 231.951 220.213 233.882C220.246 234.799 220.262 235.568 220.262 236.19C220.262 236.812 220.246 237.565 220.213 238.448C220.115 240.412 219.526 242 218.445 243.211C217.382 244.422 215.753 245.027 213.56 245.027ZM213.56 242.155C214.575 242.155 215.336 241.828 215.843 241.173C216.351 240.502 216.621 239.553 216.653 238.326C216.67 237.851 216.678 237.123 216.678 236.141C216.678 235.159 216.67 234.447 216.653 234.005C216.621 232.81 216.351 231.877 215.843 231.206C215.336 230.535 214.575 230.192 213.56 230.175C212.546 230.192 211.785 230.535 211.277 231.206C210.77 231.877 210.5 232.81 210.467 234.005C210.451 234.447 210.443 235.159 210.443 236.141C210.443 237.123 210.451 237.851 210.467 238.326C210.5 239.553 210.77 240.502 211.277 241.173C211.785 241.828 212.546 242.155 213.56 242.155Z" fill="#343836" fill-opacity="0.2"/>
<path d="M235.328 245.027C233.135 245.027 231.499 244.422 230.418 243.211C229.355 242 228.774 240.412 228.675 238.448C228.659 238.007 228.651 237.254 228.651 236.19C228.651 235.11 228.659 234.341 228.675 233.882C228.757 231.951 229.346 230.38 230.443 229.169C231.539 227.958 233.168 227.352 235.328 227.352C237.488 227.352 239.117 227.958 240.213 229.169C241.31 230.38 241.899 231.951 241.981 233.882C242.014 234.799 242.03 235.568 242.03 236.19C242.03 236.812 242.014 237.565 241.981 238.448C241.883 240.412 241.294 242 240.213 243.211C239.15 244.422 237.521 245.027 235.328 245.027ZM235.328 242.155C236.343 242.155 237.104 241.828 237.611 241.173C238.119 240.502 238.389 239.553 238.421 238.326C238.438 237.851 238.446 237.123 238.446 236.141C238.446 235.159 238.438 234.447 238.421 234.005C238.389 232.81 238.119 231.877 237.611 231.206C237.104 230.535 236.343 230.192 235.328 230.175C234.313 230.192 233.552 230.535 233.045 231.206C232.538 231.877 232.268 232.81 232.235 234.005C232.219 234.447 232.21 235.159 232.21 236.141C232.21 237.123 232.219 237.851 232.235 238.326C232.268 239.553 232.538 240.502 233.045 241.173C233.552 241.828 234.313 242.155 235.328 242.155Z" fill="#343836" fill-opacity="0.2"/>
<path d="M251.51 245.027C249.317 245.027 247.681 244.422 246.6 243.211C245.537 242 244.956 240.412 244.858 238.448C244.841 238.007 244.833 237.254 244.833 236.19C244.833 235.11 244.841 234.341 244.858 233.882C244.939 231.951 245.529 230.38 246.625 229.169C247.722 227.958 249.35 227.352 251.51 227.352C253.671 227.352 255.299 227.958 256.395 229.169C257.492 230.38 258.081 231.951 258.163 233.882C258.196 234.799 258.212 235.568 258.212 236.19C258.212 236.812 258.196 237.565 258.163 238.448C258.065 240.412 257.476 242 256.395 243.211C255.332 244.422 253.703 245.027 251.51 245.027ZM251.51 242.155C252.525 242.155 253.286 241.828 253.793 241.173C254.301 240.502 254.571 239.553 254.603 238.326C254.62 237.851 254.628 237.123 254.628 236.141C254.628 235.159 254.62 234.447 254.603 234.005C254.571 232.81 254.301 231.877 253.793 231.206C253.286 230.535 252.525 230.192 251.51 230.175C250.496 230.192 249.735 230.535 249.227 231.206C248.72 231.877 248.45 232.81 248.417 234.005C248.401 234.447 248.393 235.159 248.393 236.141C248.393 237.123 248.401 237.851 248.417 238.326C248.45 239.553 248.72 240.502 249.227 241.173C249.735 241.828 250.496 242.155 251.51 242.155Z" fill="#343836" fill-opacity="0.2"/>
<path d="M267.692 245.027C265.499 245.027 263.863 244.422 262.783 243.211C261.719 242 261.138 240.412 261.04 238.448C261.023 238.007 261.015 237.254 261.015 236.19C261.015 235.11 261.023 234.341 261.04 233.882C261.121 231.951 261.711 230.38 262.807 229.169C263.904 227.958 265.532 227.352 267.692 227.352C269.853 227.352 271.481 227.958 272.578 229.169C273.674 230.38 274.263 231.951 274.345 233.882C274.378 234.799 274.394 235.568 274.394 236.19C274.394 236.812 274.378 237.565 274.345 238.448C274.247 240.412 273.658 242 272.578 243.211C271.514 244.422 269.885 245.027 267.692 245.027ZM267.692 242.155C268.707 242.155 269.468 241.828 269.975 241.173C270.483 240.502 270.753 239.553 270.785 238.326C270.802 237.851 270.81 237.123 270.81 236.141C270.81 235.159 270.802 234.447 270.785 234.005C270.753 232.81 270.483 231.877 269.975 231.206C269.468 230.535 268.707 230.192 267.692 230.175C266.678 230.192 265.917 230.535 265.409 231.206C264.902 231.877 264.632 232.81 264.599 234.005C264.583 234.447 264.575 235.159 264.575 236.141C264.575 237.123 264.583 237.851 264.599 238.326C264.632 239.553 264.902 240.502 265.409 241.173C265.917 241.828 266.678 242.155 267.692 242.155Z" fill="#343836" fill-opacity="0.2"/>
<g clip-path="url(#clip2)">
<path d="M297.796 228.91L297.754 226.843L296.311 227.582L296.27 228.92C290.65 229.474 286.218 235.708 286.218 243.327C286.218 243.82 286.237 244.304 286.273 244.781H288.241C288.222 244.432 288.21 244.079 288.21 243.721C288.21 236.809 291.729 231.136 296.219 230.528L295.82 243.514L298.104 242.406L297.835 230.538C302.314 231.158 305.824 236.818 305.824 243.726C305.824 244.085 305.811 244.437 305.793 244.787H307.881C307.916 244.308 307.935 243.822 307.935 243.333C307.936 235.669 303.461 229.405 297.796 228.91Z" fill="#343836" fill-opacity="0.2"/>
</g>
<path d="M5.88877 135.191C5.73601 135.191 5.60617 135.137 5.49924 135.03C5.39231 134.923 5.33884 134.793 5.33884 134.641V122.817L1.87891 125.475C1.78725 125.552 1.67269 125.59 1.5352 125.59C1.3519 125.59 1.20678 125.513 1.09985 125.361L0.114567 124.078C0.0381891 123.971 0 123.864 0 123.757C0 123.573 0.0840161 123.421 0.252048 123.299L5.38467 119.312C5.5527 119.205 5.74365 119.151 5.95751 119.151H8.01972C8.17248 119.151 8.30232 119.205 8.40925 119.312C8.51618 119.418 8.56965 119.548 8.56965 119.701V134.641C8.56965 134.793 8.51618 134.923 8.40925 135.03C8.30232 135.137 8.17248 135.191 8.01972 135.191H5.88877Z" fill="#343836" fill-opacity="0.2"/>
<path d="M17.7091 135.42C15.6622 135.42 14.1346 134.855 13.1264 133.724C12.1335 132.594 11.5912 131.112 11.4995 129.279C11.4843 128.866 11.4766 128.164 11.4766 127.171C11.4766 126.163 11.4843 125.445 11.4995 125.017C11.5759 123.214 12.1258 121.748 13.1493 120.618C14.1728 119.487 15.6927 118.922 17.7091 118.922C19.7255 118.922 21.2454 119.487 22.2689 120.618C23.2923 121.748 23.8423 123.214 23.9186 125.017C23.9492 125.872 23.9645 126.59 23.9645 127.171C23.9645 127.751 23.9492 128.454 23.9186 129.279C23.827 131.112 23.2771 132.594 22.2689 133.724C21.276 134.855 19.756 135.42 17.7091 135.42ZM17.7091 132.739C18.6562 132.739 19.3665 132.433 19.84 131.822C20.3136 131.196 20.5656 130.31 20.5962 129.164C20.6115 128.721 20.6191 128.042 20.6191 127.125C20.6191 126.209 20.6115 125.544 20.5962 125.132C20.5656 124.016 20.3136 123.146 19.84 122.519C19.3665 121.893 18.6562 121.572 17.7091 121.557C16.762 121.572 16.0517 121.893 15.5781 122.519C15.1046 123.146 14.8525 124.016 14.822 125.132C14.8067 125.544 14.7991 126.209 14.7991 127.125C14.7991 128.042 14.8067 128.721 14.822 129.164C14.8525 130.31 15.1046 131.196 15.5781 131.822C16.0517 132.433 16.762 132.739 17.7091 132.739Z" fill="#343836" fill-opacity="0.2"/>
<path d="M38.0269 135.42C35.98 135.42 34.4524 134.855 33.4442 133.724C32.4513 132.594 31.909 131.112 31.8174 129.279C31.8021 128.866 31.7944 128.164 31.7944 127.171C31.7944 126.163 31.8021 125.445 31.8174 125.017C31.8937 123.214 32.4437 121.748 33.4671 120.618C34.4906 119.487 36.0105 118.922 38.0269 118.922C40.0433 118.922 41.5632 119.487 42.5867 120.618C43.6102 121.748 44.1601 123.214 44.2365 125.017C44.267 125.872 44.2823 126.59 44.2823 127.171C44.2823 127.751 44.267 128.454 44.2365 129.279C44.1448 131.112 43.5949 132.594 42.5867 133.724C41.5938 134.855 40.0739 135.42 38.0269 135.42ZM38.0269 132.739C38.974 132.739 39.6843 132.433 40.1579 131.822C40.6314 131.196 40.8835 130.31 40.914 129.164C40.9293 128.721 40.9369 128.042 40.9369 127.125C40.9369 126.209 40.9293 125.544 40.914 125.132C40.8835 124.016 40.6314 123.146 40.1579 122.519C39.6843 121.893 38.974 121.572 38.0269 121.557C37.0798 121.572 36.3695 121.893 35.896 122.519C35.4224 123.146 35.1704 124.016 35.1398 125.132C35.1245 125.544 35.1169 126.209 35.1169 127.125C35.1169 128.042 35.1245 128.721 35.1398 129.164C35.1704 130.31 35.4224 131.196 35.896 131.822C36.3695 132.433 37.0798 132.739 38.0269 132.739Z" fill="#343836" fill-opacity="0.2"/>
<path d="M53.131 135.42C51.0841 135.42 49.5565 134.855 48.5483 133.724C47.5554 132.594 47.0131 131.112 46.9215 129.279C46.9062 128.866 46.8985 128.164 46.8985 127.171C46.8985 126.163 46.9062 125.445 46.9215 125.017C46.9978 123.214 47.5478 121.748 48.5712 120.618C49.5947 119.487 51.1146 118.922 53.131 118.922C55.1474 118.922 56.6673 119.487 57.6908 120.618C58.7143 121.748 59.2642 123.214 59.3406 125.017C59.3711 125.872 59.3864 126.59 59.3864 127.171C59.3864 127.751 59.3711 128.454 59.3406 129.279C59.2489 131.112 58.699 132.594 57.6908 133.724C56.6979 134.855 55.178 135.42 53.131 135.42ZM53.131 132.739C54.0781 132.739 54.7884 132.433 55.262 131.822C55.7355 131.196 55.9876 130.31 56.0181 129.164C56.0334 128.721 56.041 128.042 56.041 127.125C56.041 126.209 56.0334 125.544 56.0181 125.132C55.9876 124.016 55.7355 123.146 55.262 122.519C54.7884 121.893 54.0781 121.572 53.131 121.557C52.1839 121.572 51.4736 121.893 51.0001 122.519C50.5265 123.146 50.2745 124.016 50.2439 125.132C50.2286 125.544 50.221 126.209 50.221 127.125C50.221 128.042 50.2286 128.721 50.2439 129.164C50.2745 130.31 50.5265 131.196 51.0001 131.822C51.4736 132.433 52.1839 132.739 53.131 132.739Z" fill="#343836" fill-opacity="0.2"/>
<path d="M68.2351 135.42C66.1882 135.42 64.6606 134.855 63.6524 133.724C62.6595 132.594 62.1172 131.112 62.0256 129.279C62.0103 128.866 62.0027 128.164 62.0027 127.171C62.0027 126.163 62.0103 125.445 62.0256 125.017C62.102 123.214 62.6519 121.748 63.6753 120.618C64.6988 119.487 66.2187 118.922 68.2351 118.922C70.2515 118.922 71.7714 119.487 72.7949 120.618C73.8184 121.748 74.3683 123.214 74.4447 125.017C74.4752 125.872 74.4905 126.59 74.4905 127.171C74.4905 127.751 74.4752 128.454 74.4447 129.279C74.353 131.112 73.8031 132.594 72.7949 133.724C71.802 134.855 70.2821 135.42 68.2351 135.42ZM68.2351 132.739C69.1822 132.739 69.8925 132.433 70.3661 131.822C70.8396 131.196 71.0917 130.31 71.1222 129.164C71.1375 128.721 71.1451 128.042 71.1451 127.125C71.1451 126.209 71.1375 125.544 71.1222 125.132C71.0917 124.016 70.8396 123.146 70.3661 122.519C69.8925 121.893 69.1822 121.572 68.2351 121.557C67.288 121.572 66.5777 121.893 66.1042 122.519C65.6306 123.146 65.3786 124.016 65.348 125.132C65.3328 125.544 65.3251 126.209 65.3251 127.125C65.3251 128.042 65.3328 128.721 65.348 129.164C65.3786 130.31 65.6306 131.196 66.1042 131.822C66.5777 132.433 67.288 132.739 68.2351 132.739Z" fill="#343836" fill-opacity="0.2"/>
<g clip-path="url(#clip3)">
<path d="M89.5117 122.012L89.4761 120.296L88.2575 120.909L88.2235 122.019C83.4792 122.479 79.7385 127.654 79.7385 133.978C79.7385 134.387 79.754 134.789 79.7849 135.185H81.4457C81.4303 134.895 81.4194 134.602 81.4194 134.305C81.4194 128.568 84.39 123.859 88.1802 123.355L87.8431 134.133L89.7714 133.213L89.5441 123.362C93.325 123.878 96.2879 128.575 96.2879 134.31C96.2879 134.607 96.2771 134.9 96.2616 135.19H98.0245C98.0539 134.793 98.0693 134.389 98.0693 133.983C98.0709 127.622 94.2931 122.422 89.5117 122.012Z" fill="#343836" fill-opacity="0.2"/>
</g>
<path d="M249.285 15.3392C249.148 15.3392 249.032 15.2915 248.937 15.196C248.842 15.1006 248.794 14.9847 248.794 14.8484V4.29564L245.706 6.66796C245.624 6.73613 245.522 6.77022 245.399 6.77022C245.235 6.77022 245.106 6.70205 245.01 6.56571L244.131 5.42045C244.063 5.32501 244.029 5.22957 244.029 5.13414C244.029 4.97053 244.104 4.83419 244.254 4.72512L248.835 1.16664C248.985 1.0712 249.155 1.02348 249.346 1.02348H251.187C251.323 1.02348 251.439 1.0712 251.534 1.16664C251.63 1.26208 251.677 1.37796 251.677 1.5143V14.8484C251.677 14.9847 251.63 15.1006 251.534 15.196C251.439 15.2915 251.323 15.3392 251.187 15.3392H249.285Z" fill="#343836" fill-opacity="0.1"/>
<path d="M259.835 15.5437C258.008 15.5437 256.644 15.0393 255.745 14.0303C254.858 13.0214 254.374 11.6989 254.293 10.0628C254.279 9.69472 254.272 9.06755 254.272 8.18134C254.272 7.28149 254.279 6.6407 254.293 6.25894C254.361 4.65013 254.852 3.34126 255.765 2.33235C256.678 1.32343 258.035 0.81897 259.835 0.81897C261.634 0.81897 262.991 1.32343 263.904 2.33235C264.818 3.34126 265.309 4.65013 265.377 6.25894C265.404 7.02245 265.418 7.66325 265.418 8.18134C265.418 8.69943 265.404 9.3266 265.377 10.0628C265.295 11.6989 264.804 13.0214 263.904 14.0303C263.018 15.0393 261.662 15.5437 259.835 15.5437ZM259.835 13.1509C260.68 13.1509 261.314 12.8783 261.737 12.3329C262.159 11.7739 262.384 10.9831 262.412 9.96058C262.425 9.56519 262.432 8.95848 262.432 8.14044C262.432 7.3224 262.425 6.72932 262.412 6.3612C262.384 5.36591 262.159 4.58878 261.737 4.02978C261.314 3.47079 260.68 3.18447 259.835 3.17084C258.989 3.18447 258.355 3.47079 257.933 4.02978C257.51 4.58878 257.285 5.36591 257.258 6.3612C257.244 6.72932 257.237 7.3224 257.237 8.14044C257.237 8.95848 257.244 9.56519 257.258 9.96058C257.285 10.9831 257.51 11.7739 257.933 12.3329C258.355 12.8783 258.989 13.1509 259.835 13.1509Z" fill="#343836" fill-opacity="0.1"/>
<path d="M277.969 15.5437C276.142 15.5437 274.779 15.0393 273.879 14.0303C272.993 13.0214 272.509 11.6989 272.427 10.0628C272.413 9.69472 272.406 9.06755 272.406 8.18134C272.406 7.28149 272.413 6.6407 272.427 6.25894C272.495 4.65013 272.986 3.34126 273.899 2.33235C274.813 1.32343 276.169 0.81897 277.969 0.81897C279.769 0.81897 281.125 1.32343 282.039 2.33235C282.952 3.34126 283.443 4.65013 283.511 6.25894C283.539 7.02245 283.552 7.66325 283.552 8.18134C283.552 8.69943 283.539 9.3266 283.511 10.0628C283.429 11.6989 282.939 13.0214 282.039 14.0303C281.153 15.0393 279.796 15.5437 277.969 15.5437ZM277.969 13.1509C278.814 13.1509 279.448 12.8783 279.871 12.3329C280.294 11.7739 280.519 10.9831 280.546 9.96058C280.56 9.56519 280.566 8.95848 280.566 8.14044C280.566 7.3224 280.56 6.72932 280.546 6.3612C280.519 5.36591 280.294 4.58878 279.871 4.02978C279.448 3.47079 278.814 3.18447 277.969 3.17084C277.124 3.18447 276.49 3.47079 276.067 4.02978C275.644 4.58878 275.419 5.36591 275.392 6.3612C275.379 6.72932 275.372 7.3224 275.372 8.14044C275.372 8.95848 275.379 9.56519 275.392 9.96058C275.419 10.9831 275.644 11.7739 276.067 12.3329C276.49 12.8783 277.124 13.1509 277.969 13.1509Z" fill="#343836" fill-opacity="0.1"/>
<path d="M291.45 15.5437C289.623 15.5437 288.26 15.0393 287.36 14.0303C286.474 13.0214 285.99 11.6989 285.908 10.0628C285.894 9.69472 285.887 9.06755 285.887 8.18134C285.887 7.28149 285.894 6.6407 285.908 6.25894C285.976 4.65013 286.467 3.34126 287.38 2.33235C288.294 1.32343 289.65 0.81897 291.45 0.81897C293.25 0.81897 294.606 1.32343 295.52 2.33235C296.433 3.34126 296.924 4.65013 296.992 6.25894C297.019 7.02245 297.033 7.66325 297.033 8.18134C297.033 8.69943 297.019 9.3266 296.992 10.0628C296.91 11.6989 296.42 13.0214 295.52 14.0303C294.633 15.0393 293.277 15.5437 291.45 15.5437ZM291.45 13.1509C292.295 13.1509 292.929 12.8783 293.352 12.3329C293.775 11.7739 294 10.9831 294.027 9.96058C294.04 9.56519 294.047 8.95848 294.047 8.14044C294.047 7.3224 294.04 6.72932 294.027 6.3612C294 5.36591 293.775 4.58878 293.352 4.02978C292.929 3.47079 292.295 3.18447 291.45 3.17084C290.605 3.18447 289.971 3.47079 289.548 4.02978C289.125 4.58878 288.9 5.36591 288.873 6.3612C288.859 6.72932 288.853 7.3224 288.853 8.14044C288.853 8.95848 288.859 9.56519 288.873 9.96058C288.9 10.9831 289.125 11.7739 289.548 12.3329C289.971 12.8783 290.605 13.1509 291.45 13.1509Z" fill="#343836" fill-opacity="0.1"/>
<path d="M304.931 15.5437C303.104 15.5437 301.74 15.0393 300.841 14.0303C299.954 13.0214 299.47 11.6989 299.389 10.0628C299.375 9.69472 299.368 9.06755 299.368 8.18134C299.368 7.28149 299.375 6.6407 299.389 6.25894C299.457 4.65013 299.948 3.34126 300.861 2.33235C301.775 1.32343 303.131 0.81897 304.931 0.81897C306.731 0.81897 308.087 1.32343 309.001 2.33235C309.914 3.34126 310.405 4.65013 310.473 6.25894C310.5 7.02245 310.514 7.66325 310.514 8.18134C310.514 8.69943 310.5 9.3266 310.473 10.0628C310.391 11.6989 309.9 13.0214 309.001 14.0303C308.114 15.0393 306.758 15.5437 304.931 15.5437ZM304.931 13.1509C305.776 13.1509 306.41 12.8783 306.833 12.3329C307.255 11.7739 307.48 10.9831 307.508 9.96058C307.521 9.56519 307.528 8.95848 307.528 8.14044C307.528 7.3224 307.521 6.72932 307.508 6.3612C307.48 5.36591 307.255 4.58878 306.833 4.02978C306.41 3.47079 305.776 3.18447 304.931 3.17084C304.086 3.18447 303.452 3.47079 303.029 4.02978C302.606 4.58878 302.381 5.36591 302.354 6.3612C302.34 6.72932 302.334 7.3224 302.334 8.14044C302.334 8.95848 302.34 9.56519 302.354 9.96058C302.381 10.9831 302.606 11.7739 303.029 12.3329C303.452 12.8783 304.086 13.1509 304.931 13.1509Z" fill="#343836" fill-opacity="0.1"/>
<g clip-path="url(#clip4)">
<path d="M323.921 3.57641L323.889 2.0451L322.802 2.59249L322.771 3.58325C318.537 3.99378 315.198 8.61232 315.198 14.2572C315.198 14.6221 315.212 14.9811 315.24 15.3342H316.722C316.708 15.0755 316.699 14.8142 316.699 14.5487C316.699 9.42792 319.35 5.22539 322.733 4.77517L322.432 14.3954L324.153 13.5743L323.95 4.78201C327.325 5.24182 329.969 9.43476 329.969 14.5528C329.969 14.8183 329.959 15.0796 329.946 15.3383H331.519C331.545 14.9838 331.559 14.6239 331.559 14.2613C331.56 8.58358 328.189 3.94315 323.921 3.57641Z" fill="#343836" fill-opacity="0.1"/>
</g>
<path d="M415.408 242.182C415.271 242.182 415.155 242.135 415.06 242.039C414.964 241.944 414.917 241.828 414.917 241.692V231.139L411.829 233.511C411.747 233.579 411.645 233.613 411.522 233.613C411.358 233.613 411.229 233.545 411.133 233.409L410.254 232.264C410.186 232.168 410.152 232.073 410.152 231.977C410.152 231.814 410.227 231.677 410.377 231.568L414.958 228.01C415.108 227.914 415.278 227.867 415.469 227.867H417.309C417.446 227.867 417.562 227.914 417.657 228.01C417.753 228.105 417.8 228.221 417.8 228.357V241.692C417.8 241.828 417.753 241.944 417.657 242.039C417.562 242.135 417.446 242.182 417.309 242.182H415.408Z" fill="#343836" fill-opacity="0.1"/>
<path d="M425.958 242.387C424.131 242.387 422.767 241.882 421.867 240.873C420.981 239.865 420.497 238.542 420.415 236.906C420.402 236.538 420.395 235.911 420.395 235.024C420.395 234.125 420.402 233.484 420.415 233.102C420.483 231.493 420.974 230.184 421.888 229.175C422.801 228.167 424.158 227.662 425.958 227.662C427.757 227.662 429.114 228.167 430.027 229.175C430.941 230.184 431.432 231.493 431.5 233.102C431.527 233.866 431.541 234.506 431.541 235.024C431.541 235.543 431.527 236.17 431.5 236.906C431.418 238.542 430.927 239.865 430.027 240.873C429.141 241.882 427.784 242.387 425.958 242.387ZM425.958 239.994C426.803 239.994 427.437 239.721 427.859 239.176C428.282 238.617 428.507 237.826 428.534 236.804C428.548 236.408 428.555 235.802 428.555 234.984C428.555 234.166 428.548 233.572 428.534 233.204C428.507 232.209 428.282 231.432 427.859 230.873C427.437 230.314 426.803 230.028 425.958 230.014C425.112 230.028 424.478 230.314 424.056 230.873C423.633 231.432 423.408 232.209 423.381 233.204C423.367 233.572 423.36 234.166 423.36 234.984C423.36 235.802 423.367 236.408 423.381 236.804C423.408 237.826 423.633 238.617 424.056 239.176C424.478 239.721 425.112 239.994 425.958 239.994Z" fill="#343836" fill-opacity="0.1"/>
<path d="M444.092 242.387C442.265 242.387 440.901 241.882 440.002 240.873C439.115 239.865 438.631 238.542 438.55 236.906C438.536 236.538 438.529 235.911 438.529 235.024C438.529 234.125 438.536 233.484 438.55 233.102C438.618 231.493 439.109 230.184 440.022 229.175C440.936 228.167 442.292 227.662 444.092 227.662C445.892 227.662 447.248 228.167 448.162 229.175C449.075 230.184 449.566 231.493 449.634 233.102C449.661 233.866 449.675 234.506 449.675 235.024C449.675 235.543 449.661 236.17 449.634 236.906C449.552 238.542 449.061 239.865 448.162 240.873C447.275 241.882 445.919 242.387 444.092 242.387ZM444.092 239.994C444.937 239.994 445.571 239.721 445.994 239.176C446.416 238.617 446.641 237.826 446.669 236.804C446.682 236.408 446.689 235.802 446.689 234.984C446.689 234.166 446.682 233.572 446.669 233.204C446.641 232.209 446.416 231.432 445.994 230.873C445.571 230.314 444.937 230.028 444.092 230.014C443.247 230.028 442.613 230.314 442.19 230.873C441.767 231.432 441.542 232.209 441.515 233.204C441.501 233.572 441.495 234.166 441.495 234.984C441.495 235.802 441.501 236.408 441.515 236.804C441.542 237.826 441.767 238.617 442.19 239.176C442.613 239.721 443.247 239.994 444.092 239.994Z" fill="#343836" fill-opacity="0.1"/>
<path d="M457.573 242.387C455.746 242.387 454.382 241.882 453.483 240.873C452.596 239.865 452.112 238.542 452.031 236.906C452.017 236.538 452.01 235.911 452.01 235.024C452.01 234.125 452.017 233.484 452.031 233.102C452.099 231.493 452.59 230.184 453.503 229.175C454.416 228.167 455.773 227.662 457.573 227.662C459.372 227.662 460.729 228.167 461.643 229.175C462.556 230.184 463.047 231.493 463.115 233.102C463.142 233.866 463.156 234.506 463.156 235.024C463.156 235.543 463.142 236.17 463.115 236.906C463.033 238.542 462.542 239.865 461.643 240.873C460.756 241.882 459.4 242.387 457.573 242.387ZM457.573 239.994C458.418 239.994 459.052 239.721 459.475 239.176C459.897 238.617 460.122 237.826 460.15 236.804C460.163 236.408 460.17 235.802 460.17 234.984C460.17 234.166 460.163 233.572 460.15 233.204C460.122 232.209 459.897 231.432 459.475 230.873C459.052 230.314 458.418 230.028 457.573 230.014C456.727 230.028 456.093 230.314 455.671 230.873C455.248 231.432 455.023 232.209 454.996 233.204C454.982 233.572 454.975 234.166 454.975 234.984C454.975 235.802 454.982 236.408 454.996 236.804C455.023 237.826 455.248 238.617 455.671 239.176C456.093 239.721 456.727 239.994 457.573 239.994Z" fill="#343836" fill-opacity="0.1"/>
<path d="M471.054 242.387C469.227 242.387 467.863 241.882 466.963 240.873C466.077 239.865 465.593 238.542 465.511 236.906C465.498 236.538 465.491 235.911 465.491 235.024C465.491 234.125 465.498 233.484 465.511 233.102C465.58 231.493 466.07 230.184 466.984 229.175C467.897 228.167 469.254 227.662 471.054 227.662C472.853 227.662 474.21 228.167 475.123 229.175C476.037 230.184 476.528 231.493 476.596 233.102C476.623 233.866 476.637 234.506 476.637 235.024C476.637 235.543 476.623 236.17 476.596 236.906C476.514 238.542 476.023 239.865 475.123 240.873C474.237 241.882 472.881 242.387 471.054 242.387ZM471.054 239.994C471.899 239.994 472.533 239.721 472.956 239.176C473.378 238.617 473.603 237.826 473.63 236.804C473.644 236.408 473.651 235.802 473.651 234.984C473.651 234.166 473.644 233.572 473.63 233.204C473.603 232.209 473.378 231.432 472.956 230.873C472.533 230.314 471.899 230.028 471.054 230.014C470.208 230.028 469.574 230.314 469.152 230.873C468.729 231.432 468.504 232.209 468.477 233.204C468.463 233.572 468.456 234.166 468.456 234.984C468.456 235.802 468.463 236.408 468.477 236.804C468.504 237.826 468.729 238.617 469.152 239.176C469.574 239.721 470.208 239.994 471.054 239.994Z" fill="#343836" fill-opacity="0.1"/>
<g clip-path="url(#clip5)">
<path d="M496.918 230.42L496.886 228.888L495.799 229.436L495.768 230.427C491.534 230.837 488.195 235.456 488.195 241.101C488.195 241.465 488.209 241.824 488.236 242.178H489.719C489.705 241.919 489.695 241.658 489.695 241.392C489.695 236.271 492.347 232.069 495.73 231.619L495.429 241.239L497.15 240.418L496.947 231.625C500.321 232.085 502.966 236.278 502.966 241.396C502.966 241.662 502.956 241.923 502.942 242.182H504.516C504.542 241.827 504.556 241.467 504.556 241.105C504.557 235.427 501.185 230.787 496.918 230.42Z" fill="#343836" fill-opacity="0.1"/>
</g>
<path d="M485.002 140.306C484.214 140.306 483.53 140.173 482.95 139.907C482.38 139.641 481.948 139.29 481.654 138.853C481.359 138.416 481.202 137.945 481.183 137.442V137.413C481.183 137.337 481.212 137.276 481.269 137.228C481.335 137.171 481.407 137.143 481.483 137.143H482.836C483.055 137.143 483.193 137.238 483.25 137.428C483.383 137.846 483.601 138.155 483.905 138.354C484.219 138.554 484.584 138.653 485.002 138.653C485.534 138.653 485.971 138.492 486.313 138.169C486.665 137.846 486.841 137.399 486.841 136.829C486.841 136.316 486.665 135.903 486.313 135.589C485.971 135.266 485.534 135.105 485.002 135.105C484.717 135.105 484.485 135.143 484.304 135.219C484.124 135.295 483.948 135.399 483.777 135.532C483.758 135.542 483.715 135.57 483.649 135.618C483.582 135.665 483.52 135.699 483.463 135.718C483.416 135.737 483.364 135.746 483.307 135.746H481.967C481.882 135.746 481.806 135.718 481.739 135.661C481.682 135.594 481.654 135.518 481.654 135.433L482.138 130.573C482.148 130.45 482.19 130.355 482.266 130.288C482.352 130.212 482.452 130.174 482.566 130.174H487.924C488.028 130.174 488.109 130.208 488.166 130.274C488.232 130.331 488.266 130.412 488.266 130.516V131.485C488.266 131.58 488.232 131.661 488.166 131.728C488.109 131.794 488.028 131.827 487.924 131.827H483.805L483.577 134.136C483.796 133.993 484.048 133.879 484.333 133.794C484.618 133.699 484.988 133.651 485.444 133.651C486.062 133.651 486.632 133.784 487.154 134.05C487.686 134.307 488.109 134.682 488.422 135.176C488.745 135.661 488.907 136.226 488.907 136.872C488.907 137.565 488.745 138.174 488.422 138.696C488.099 139.209 487.643 139.608 487.054 139.893C486.465 140.169 485.781 140.306 485.002 140.306Z" fill="#343836" fill-opacity="0.05"/>
<path d="M497.409 140.292C496.136 140.292 495.186 139.941 494.559 139.238C493.942 138.535 493.604 137.613 493.547 136.473C493.538 136.216 493.533 135.779 493.533 135.162C493.533 134.535 493.538 134.088 493.547 133.822C493.595 132.701 493.937 131.789 494.573 131.086C495.21 130.383 496.155 130.032 497.409 130.032C498.663 130.032 499.608 130.383 500.245 131.086C500.881 131.789 501.223 132.701 501.271 133.822C501.29 134.354 501.299 134.801 501.299 135.162C501.299 135.523 501.29 135.96 501.271 136.473C501.214 137.613 500.872 138.535 500.245 139.238C499.627 139.941 498.682 140.292 497.409 140.292ZM497.409 138.625C497.998 138.625 498.44 138.435 498.734 138.055C499.029 137.665 499.186 137.114 499.205 136.402C499.214 136.126 499.219 135.703 499.219 135.133C499.219 134.563 499.214 134.15 499.205 133.894C499.186 133.2 499.029 132.659 498.734 132.269C498.44 131.88 497.998 131.68 497.409 131.671C496.82 131.68 496.378 131.88 496.084 132.269C495.789 132.659 495.633 133.2 495.614 133.894C495.604 134.15 495.599 134.563 495.599 135.133C495.599 135.703 495.604 136.126 495.614 136.402C495.633 137.114 495.789 137.665 496.084 138.055C496.378 138.435 496.82 138.625 497.409 138.625Z" fill="#343836" fill-opacity="0.05"/>
<path d="M506.803 140.292C505.53 140.292 504.58 139.941 503.953 139.238C503.335 138.535 502.998 137.613 502.941 136.473C502.931 136.216 502.927 135.779 502.927 135.162C502.927 134.535 502.931 134.088 502.941 133.822C502.988 132.701 503.33 131.789 503.967 131.086C504.603 130.383 505.549 130.032 506.803 130.032C508.057 130.032 509.002 130.383 509.638 131.086C510.275 131.789 510.617 132.701 510.664 133.822C510.683 134.354 510.693 134.801 510.693 135.162C510.693 135.523 510.683 135.96 510.664 136.473C510.607 137.613 510.265 138.535 509.638 139.238C509.021 139.941 508.076 140.292 506.803 140.292ZM506.803 138.625C507.392 138.625 507.833 138.435 508.128 138.055C508.422 137.665 508.579 137.114 508.598 136.402C508.608 136.126 508.612 135.703 508.612 135.133C508.612 134.563 508.608 134.15 508.598 133.894C508.579 133.2 508.422 132.659 508.128 132.269C507.833 131.88 507.392 131.68 506.803 131.671C506.214 131.68 505.772 131.88 505.477 132.269C505.183 132.659 505.026 133.2 505.007 133.894C504.998 134.15 504.993 134.563 504.993 135.133C504.993 135.703 504.998 136.126 505.007 136.402C505.026 137.114 505.183 137.665 505.477 138.055C505.772 138.435 506.214 138.625 506.803 138.625Z" fill="#343836" fill-opacity="0.05"/>
<path d="M516.196 140.292C514.923 140.292 513.973 139.941 513.346 139.238C512.729 138.535 512.391 137.613 512.334 136.473C512.325 136.216 512.32 135.779 512.32 135.162C512.32 134.535 512.325 134.088 512.334 133.822C512.382 132.701 512.724 131.789 513.36 131.086C513.997 130.383 514.942 130.032 516.196 130.032C517.45 130.032 518.395 130.383 519.032 131.086C519.668 131.789 520.01 132.701 520.058 133.822C520.077 134.354 520.086 134.801 520.086 135.162C520.086 135.523 520.077 135.96 520.058 136.473C520.001 137.613 519.659 138.535 519.032 139.238C518.414 139.941 517.469 140.292 516.196 140.292ZM516.196 138.625C516.785 138.625 517.227 138.435 517.521 138.055C517.816 137.665 517.973 137.114 517.992 136.402C518.001 136.126 518.006 135.703 518.006 135.133C518.006 134.563 518.001 134.15 517.992 133.894C517.973 133.2 517.816 132.659 517.521 132.269C517.227 131.88 516.785 131.68 516.196 131.671C515.607 131.68 515.165 131.88 514.871 132.269C514.576 132.659 514.42 133.2 514.401 133.894C514.391 134.15 514.386 134.563 514.386 135.133C514.386 135.703 514.391 136.126 514.401 136.402C514.42 137.114 514.576 137.665 514.871 138.055C515.165 138.435 515.607 138.625 516.196 138.625Z" fill="#343836" fill-opacity="0.05"/>
<g clip-path="url(#clip6)">
<path d="M529.456 131.953L529.434 130.886L528.676 131.268L528.655 131.958C525.704 132.244 523.378 135.462 523.378 139.396C523.378 139.65 523.388 139.9 523.407 140.146H524.44C524.43 139.966 524.423 139.784 524.423 139.599C524.423 136.031 526.271 133.102 528.628 132.789L528.418 139.492L529.618 138.92L529.476 132.793C531.828 133.114 533.67 136.035 533.67 139.602C533.67 139.787 533.663 139.969 533.654 140.149H534.75C534.769 139.902 534.778 139.651 534.778 139.398C534.779 135.442 532.43 132.209 529.456 131.953Z" fill="#343836" fill-opacity="0.05"/>
</g>
<path d="M41.6264 91.0422C40.8379 91.0422 40.1539 90.9092 39.5744 90.6432C39.0044 90.3772 38.5721 90.0257 38.2776 89.5887C37.9831 89.1517 37.8264 88.6814 37.8074 88.1779V88.1494C37.8074 88.0734 37.8359 88.0117 37.8929 87.9642C37.9594 87.9072 38.0306 87.8787 38.1066 87.8787H39.4604C39.6789 87.8787 39.8167 87.9737 39.8737 88.1637C40.0067 88.5817 40.2252 88.8904 40.5292 89.0899C40.8427 89.2894 41.2084 89.3892 41.6264 89.3892C42.1584 89.3892 42.5955 89.2277 42.9375 88.9047C43.289 88.5817 43.4647 88.1352 43.4647 87.5652C43.4647 87.0522 43.289 86.6389 42.9375 86.3254C42.5955 86.0024 42.1584 85.8409 41.6264 85.8409C41.3414 85.8409 41.1087 85.8789 40.9282 85.9549C40.7477 86.0309 40.5719 86.1354 40.4009 86.2684C40.3819 86.2779 40.3392 86.3064 40.2727 86.3539C40.2062 86.4014 40.1444 86.4346 40.0874 86.4536C40.0399 86.4726 39.9877 86.4821 39.9307 86.4821H38.5911C38.5056 86.4821 38.4296 86.4536 38.3631 86.3966C38.3061 86.3301 38.2776 86.2541 38.2776 86.1686L38.7621 81.3093C38.7716 81.1858 38.8144 81.0908 38.8904 81.0243C38.9759 80.9483 39.0756 80.9103 39.1896 80.9103H44.5477C44.6522 80.9103 44.733 80.9435 44.79 81.01C44.8565 81.067 44.8897 81.1478 44.8897 81.2523V82.2213C44.8897 82.3163 44.8565 82.3971 44.79 82.4636C44.733 82.5301 44.6522 82.5633 44.5477 82.5633H40.4294L40.2014 84.8719C40.4199 84.7294 40.6717 84.6154 40.9567 84.5299C41.2417 84.4349 41.6122 84.3874 42.0682 84.3874C42.6857 84.3874 43.2557 84.5204 43.7782 84.7864C44.3102 85.0429 44.733 85.4181 45.0465 85.9121C45.3695 86.3966 45.531 86.9619 45.531 87.6079C45.531 88.3014 45.3695 88.9094 45.0465 89.4319C44.7235 89.945 44.2675 90.344 43.6785 90.629C43.0895 90.9045 42.4055 91.0422 41.6264 91.0422Z" fill="#343836" fill-opacity="0.05"/>
<path d="M54.0332 91.028C52.7601 91.028 51.8101 90.6765 51.1831 89.9735C50.5656 89.2704 50.2284 88.3489 50.1714 87.2089C50.1619 86.9524 50.1571 86.5154 50.1571 85.8979C50.1571 85.2709 50.1619 84.8244 50.1714 84.5584C50.2189 83.4373 50.5609 82.5253 51.1974 81.8223C51.8339 81.1193 52.7791 80.7678 54.0332 80.7678C55.2872 80.7678 56.2325 81.1193 56.869 81.8223C57.5055 82.5253 57.8475 83.4373 57.895 84.5584C57.914 85.0904 57.9235 85.5369 57.9235 85.8979C57.9235 86.2589 57.914 86.6959 57.895 87.2089C57.838 88.3489 57.496 89.2704 56.869 89.9735C56.2515 90.6765 55.3062 91.028 54.0332 91.028ZM54.0332 89.3607C54.6222 89.3607 55.0639 89.1707 55.3584 88.7907C55.6529 88.4012 55.8097 87.8502 55.8287 87.1377C55.8382 86.8621 55.843 86.4394 55.843 85.8694C55.843 85.2994 55.8382 84.8861 55.8287 84.6296C55.8097 83.9361 55.6529 83.3946 55.3584 83.0051C55.0639 82.6156 54.6222 82.4161 54.0332 82.4066C53.4442 82.4161 53.0024 82.6156 52.7079 83.0051C52.4134 83.3946 52.2566 83.9361 52.2376 84.6296C52.2281 84.8861 52.2234 85.2994 52.2234 85.8694C52.2234 86.4394 52.2281 86.8621 52.2376 87.1377C52.2566 87.8502 52.4134 88.4012 52.7079 88.7907C53.0024 89.1707 53.4442 89.3607 54.0332 89.3607Z" fill="#343836" fill-opacity="0.05"/>
<path d="M63.4266 91.028C62.1536 91.028 61.2036 90.6765 60.5766 89.9735C59.9591 89.2704 59.6218 88.3489 59.5648 87.2089C59.5553 86.9524 59.5506 86.5154 59.5506 85.8979C59.5506 85.2709 59.5553 84.8244 59.5648 84.5584C59.6123 83.4373 59.9543 82.5253 60.5908 81.8223C61.2274 81.1193 62.1726 80.7678 63.4266 80.7678C64.6807 80.7678 65.6259 81.1193 66.2624 81.8223C66.899 82.5253 67.241 83.4373 67.2885 84.5584C67.3075 85.0904 67.317 85.5369 67.317 85.8979C67.317 86.2589 67.3075 86.6959 67.2885 87.2089C67.2315 88.3489 66.8895 89.2704 66.2624 89.9735C65.6449 90.6765 64.6997 91.028 63.4266 91.028ZM63.4266 89.3607C64.0157 89.3607 64.4574 89.1707 64.7519 88.7907C65.0464 88.4012 65.2032 87.8502 65.2222 87.1377C65.2317 86.8621 65.2364 86.4394 65.2364 85.8694C65.2364 85.2994 65.2317 84.8861 65.2222 84.6296C65.2032 83.9361 65.0464 83.3946 64.7519 83.0051C64.4574 82.6156 64.0157 82.4161 63.4266 82.4066C62.8376 82.4161 62.3959 82.6156 62.1014 83.0051C61.8069 83.3946 61.6501 83.9361 61.6311 84.6296C61.6216 84.8861 61.6169 85.2994 61.6169 85.8694C61.6169 86.4394 61.6216 86.8621 61.6311 87.1377C61.6501 87.8502 61.8069 88.4012 62.1014 88.7907C62.3959 89.1707 62.8376 89.3607 63.4266 89.3607Z" fill="#343836" fill-opacity="0.05"/>
<path d="M72.8201 91.028C71.5471 91.028 70.5971 90.6765 69.9701 89.9735C69.3526 89.2704 69.0153 88.3489 68.9583 87.2089C68.9488 86.9524 68.944 86.5154 68.944 85.8979C68.944 85.2709 68.9488 84.8244 68.9583 84.5584C69.0058 83.4373 69.3478 82.5253 69.9843 81.8223C70.6208 81.1193 71.5661 80.7678 72.8201 80.7678C74.0741 80.7678 75.0194 81.1193 75.6559 81.8223C76.2924 82.5253 76.6344 83.4373 76.6819 84.5584C76.7009 85.0904 76.7104 85.5369 76.7104 85.8979C76.7104 86.2589 76.7009 86.6959 76.6819 87.2089C76.6249 88.3489 76.2829 89.2704 75.6559 89.9735C75.0384 90.6765 74.0931 91.028 72.8201 91.028ZM72.8201 89.3607C73.4091 89.3607 73.8509 89.1707 74.1454 88.7907C74.4399 88.4012 74.5966 87.8502 74.6156 87.1377C74.6251 86.8621 74.6299 86.4394 74.6299 85.8694C74.6299 85.2994 74.6251 84.8861 74.6156 84.6296C74.5966 83.9361 74.4399 83.3946 74.1454 83.0051C73.8509 82.6156 73.4091 82.4161 72.8201 82.4066C72.2311 82.4161 71.7893 82.6156 71.4948 83.0051C71.2003 83.3946 71.0436 83.9361 71.0246 84.6296C71.0151 84.8861 71.0103 85.2994 71.0103 85.8694C71.0103 86.4394 71.0151 86.8621 71.0246 87.1377C71.0436 87.8502 71.2003 88.4012 71.4948 88.7907C71.7893 89.1707 72.2311 89.3607 72.8201 89.3607Z" fill="#343836" fill-opacity="0.05"/>
<g clip-path="url(#clip7)">
<path d="M86.0803 82.6891L86.0581 81.6221L85.3003 82.0035L85.2791 82.6939C82.3286 82.98 80.0022 86.1982 80.0022 90.1315C80.0022 90.3858 80.0118 90.6359 80.0311 90.8819H81.0639C81.0543 90.7017 81.0476 90.5196 81.0476 90.3346C81.0476 86.7665 82.895 83.8382 85.2522 83.5244L85.0426 90.2278L86.2418 89.6557L86.1004 83.5292C88.4518 83.8496 90.2945 86.7712 90.2945 90.3375C90.2945 90.5224 90.2878 90.7046 90.2781 90.8848H91.3745C91.3928 90.6378 91.4024 90.387 91.4024 90.1344C91.4034 86.1781 89.0539 82.9447 86.0803 82.6891Z" fill="#343836" fill-opacity="0.05"/>
</g>
<path d="M83.58 202.159C83.405 202.159 83.2592 202.101 83.1425 201.984C83.0259 201.848 82.9676 201.693 82.9676 201.518C82.9676 201.459 82.987 201.372 83.0259 201.255L90.0246 185.246H80.8971C80.7027 185.246 80.5375 185.178 80.4014 185.042C80.2653 184.906 80.1973 184.74 80.1973 184.546V182.475C80.1973 182.262 80.2556 182.087 80.3722 181.951C80.5083 181.814 80.6833 181.746 80.8971 181.746H93.728C93.9419 181.746 94.1169 181.814 94.2529 181.951C94.389 182.087 94.4571 182.262 94.4571 182.475V184.313C94.4571 184.721 94.3599 185.139 94.1655 185.567L87.2251 201.459C87.1085 201.673 86.9821 201.848 86.846 201.984C86.7099 202.101 86.5252 202.159 86.2919 202.159H83.58Z" fill="#343836" fill-opacity="0.3"/>
<path d="M104.836 202.451C102.231 202.451 100.287 201.732 99.0039 200.293C97.7403 198.854 97.0501 196.969 96.9335 194.636C96.914 194.111 96.9043 193.216 96.9043 191.953C96.9043 190.67 96.914 189.756 96.9335 189.212C97.0307 186.918 97.7306 185.051 99.0331 183.613C100.336 182.174 102.27 181.455 104.836 181.455C107.402 181.455 109.337 182.174 110.639 183.613C111.942 185.051 112.642 186.918 112.739 189.212C112.778 190.3 112.797 191.214 112.797 191.953C112.797 192.692 112.778 193.586 112.739 194.636C112.622 196.969 111.922 198.854 110.639 200.293C109.376 201.732 107.441 202.451 104.836 202.451ZM104.836 199.039C106.041 199.039 106.945 198.65 107.548 197.873C108.151 197.075 108.472 195.948 108.51 194.49C108.53 193.926 108.54 193.061 108.54 191.895C108.54 190.728 108.53 189.882 108.51 189.358C108.472 187.938 108.151 186.83 107.548 186.033C106.945 185.236 106.041 184.828 104.836 184.808C103.631 184.828 102.727 185.236 102.124 186.033C101.522 186.83 101.201 187.938 101.162 189.358C101.142 189.882 101.133 190.728 101.133 191.895C101.133 193.061 101.142 193.926 101.162 194.49C101.201 195.948 101.522 197.075 102.124 197.873C102.727 198.65 103.631 199.039 104.836 199.039Z" fill="#343836" fill-opacity="0.3"/>
<path d="M130.694 202.451C128.089 202.451 126.145 201.732 124.862 200.293C123.598 198.854 122.908 196.969 122.791 194.636C122.772 194.111 122.762 193.216 122.762 191.953C122.762 190.67 122.772 189.756 122.791 189.212C122.888 186.918 123.588 185.051 124.891 183.613C126.193 182.174 128.128 181.455 130.694 181.455C133.26 181.455 135.194 182.174 136.497 183.613C137.799 185.051 138.499 186.918 138.597 189.212C138.635 190.3 138.655 191.214 138.655 191.953C138.655 192.692 138.635 193.586 138.597 194.636C138.48 196.969 137.78 198.854 136.497 200.293C135.233 201.732 133.299 202.451 130.694 202.451ZM130.694 199.039C131.899 199.039 132.803 198.65 133.406 197.873C134.009 197.075 134.329 195.948 134.368 194.49C134.388 193.926 134.397 193.061 134.397 191.895C134.397 190.728 134.388 189.882 134.368 189.358C134.329 187.938 134.009 186.83 133.406 186.033C132.803 185.236 131.899 184.828 130.694 184.808C129.489 184.828 128.585 185.236 127.982 186.033C127.379 186.83 127.058 187.938 127.02 189.358C127 189.882 126.99 190.728 126.99 191.895C126.99 193.061 127 193.926 127.02 194.49C127.058 195.948 127.379 197.075 127.982 197.873C128.585 198.65 129.489 199.039 130.694 199.039Z" fill="#343836" fill-opacity="0.3"/>
<path d="M149.916 202.451C147.311 202.451 145.367 201.732 144.084 200.293C142.82 198.854 142.13 196.969 142.014 194.636C141.994 194.111 141.985 193.216 141.985 191.953C141.985 190.67 141.994 189.756 142.014 189.212C142.111 186.918 142.811 185.051 144.113 183.613C145.416 182.174 147.35 181.455 149.916 181.455C152.483 181.455 154.417 182.174 155.719 183.613C157.022 185.051 157.722 186.918 157.819 189.212C157.858 190.3 157.877 191.214 157.877 191.953C157.877 192.692 157.858 193.586 157.819 194.636C157.702 196.969 157.002 198.854 155.719 200.293C154.456 201.732 152.521 202.451 149.916 202.451ZM149.916 199.039C151.122 199.039 152.026 198.65 152.628 197.873C153.231 197.075 153.552 195.948 153.591 194.49C153.61 193.926 153.62 193.061 153.62 191.895C153.62 190.728 153.61 189.882 153.591 189.358C153.552 187.938 153.231 186.83 152.628 186.033C152.026 185.236 151.122 184.828 149.916 184.808C148.711 184.828 147.807 185.236 147.204 186.033C146.602 186.83 146.281 187.938 146.242 189.358C146.223 189.882 146.213 190.728 146.213 191.895C146.213 193.061 146.223 193.926 146.242 194.49C146.281 195.948 146.602 197.075 147.204 197.873C147.807 198.65 148.711 199.039 149.916 199.039Z" fill="#343836" fill-opacity="0.3"/>
<path d="M169.139 202.451C166.534 202.451 164.59 201.732 163.307 200.293C162.043 198.854 161.353 196.969 161.236 194.636C161.217 194.111 161.207 193.216 161.207 191.953C161.207 190.67 161.217 189.756 161.236 189.212C161.333 186.918 162.033 185.051 163.336 183.613C164.638 182.174 166.573 181.455 169.139 181.455C171.705 181.455 173.639 182.174 174.942 183.613C176.244 185.051 176.944 186.918 177.041 189.212C177.08 190.3 177.1 191.214 177.1 191.953C177.1 192.692 177.08 193.586 177.041 194.636C176.925 196.969 176.225 198.854 174.942 200.293C173.678 201.732 171.744 202.451 169.139 202.451ZM169.139 199.039C170.344 199.039 171.248 198.65 171.851 197.873C172.453 197.075 172.774 195.948 172.813 194.49C172.833 193.926 172.842 193.061 172.842 191.895C172.842 190.728 172.833 189.882 172.813 189.358C172.774 187.938 172.453 186.83 171.851 186.033C171.248 185.236 170.344 184.828 169.139 184.808C167.933 184.828 167.029 185.236 166.427 186.033C165.824 186.83 165.503 187.938 165.464 189.358C165.445 189.882 165.435 190.728 165.435 191.895C165.435 193.061 165.445 193.926 165.464 194.49C165.503 195.948 165.824 197.075 166.427 197.873C167.029 198.65 167.933 199.039 169.139 199.039Z" fill="#343836" fill-opacity="0.3"/>
<g clip-path="url(#clip8)">
<path d="M201.408 185.946L201.365 183.836L199.912 184.59L199.871 185.956C194.21 186.522 189.747 192.888 189.747 200.669C189.747 201.172 189.766 201.666 189.803 202.153H191.784C191.766 201.797 191.753 201.436 191.753 201.07C191.753 194.012 195.297 188.219 199.819 187.599L199.417 200.859L201.718 199.727L201.447 187.608C205.958 188.242 209.493 194.021 209.493 201.076C209.493 201.442 209.48 201.802 209.461 202.159H211.565C211.6 201.67 211.618 201.174 211.618 200.674C211.62 192.848 207.113 186.452 201.408 185.946Z" fill="#343836" fill-opacity="0.3"/>
</g>
<path d="M294.695 202.464C294.451 202.464 294.243 202.378 294.072 202.207C293.901 202.036 293.815 201.828 293.815 201.584V182.666L288.279 186.919C288.133 187.041 287.949 187.102 287.729 187.102C287.436 187.102 287.204 186.98 287.033 186.736L285.456 184.683C285.334 184.512 285.273 184.341 285.273 184.169C285.273 183.876 285.407 183.632 285.676 183.436L293.888 177.057C294.157 176.886 294.463 176.801 294.805 176.801H298.105C298.349 176.801 298.557 176.886 298.728 177.057C298.899 177.228 298.984 177.436 298.984 177.68V201.584C298.984 201.828 298.899 202.036 298.728 202.207C298.557 202.378 298.349 202.464 298.105 202.464H294.695Z" fill="#343836" fill-opacity="0.6"/>
<path d="M313.607 202.83C310.332 202.83 307.888 201.926 306.275 200.117C304.687 198.309 303.819 195.938 303.672 193.005C303.648 192.345 303.636 191.221 303.636 189.632C303.636 188.019 303.648 186.87 303.672 186.186C303.794 183.302 304.674 180.955 306.312 179.147C307.949 177.338 310.381 176.434 313.607 176.434C316.834 176.434 319.266 177.338 320.903 179.147C322.541 180.955 323.421 183.302 323.543 186.186C323.592 187.555 323.616 188.703 323.616 189.632C323.616 190.561 323.592 191.685 323.543 193.005C323.396 195.938 322.516 198.309 320.903 200.117C319.314 201.926 316.883 202.83 313.607 202.83ZM313.607 198.541C315.123 198.541 316.259 198.052 317.017 197.074C317.775 196.072 318.178 194.655 318.227 192.822C318.251 192.113 318.264 191.025 318.264 189.559C318.264 188.092 318.251 187.029 318.227 186.369C318.178 184.585 317.775 183.192 317.017 182.19C316.259 181.188 315.123 180.674 313.607 180.65C312.092 180.674 310.956 181.188 310.198 182.19C309.44 183.192 309.037 184.585 308.988 186.369C308.964 187.029 308.951 188.092 308.951 189.559C308.951 191.025 308.964 192.113 308.988 192.822C309.037 194.655 309.44 196.072 310.198 197.074C310.956 198.052 312.092 198.541 313.607 198.541Z" fill="#343836" fill-opacity="0.6"/>
<path d="M337.774 202.83C334.499 202.83 332.055 201.926 330.442 200.117C328.853 198.309 327.985 195.938 327.839 193.005C327.814 192.345 327.802 191.221 327.802 189.632C327.802 188.019 327.814 186.87 327.839 186.186C327.961 183.302 328.841 180.955 330.478 179.147C332.116 177.338 334.548 176.434 337.774 176.434C341 176.434 343.432 177.338 345.07 179.147C346.707 180.955 347.587 183.302 347.709 186.186C347.758 187.555 347.783 188.703 347.783 189.632C347.783 190.561 347.758 191.685 347.709 193.005C347.563 195.938 346.683 198.309 345.07 200.117C343.481 201.926 341.049 202.83 337.774 202.83ZM337.774 198.541C339.289 198.541 340.426 198.052 341.184 197.074C341.941 196.072 342.345 194.655 342.393 192.822C342.418 192.113 342.43 191.025 342.43 189.559C342.43 188.092 342.418 187.029 342.393 186.369C342.345 184.585 341.941 183.192 341.184 182.19C340.426 181.188 339.289 180.674 337.774 180.65C336.259 180.674 335.122 181.188 334.365 182.19C333.607 183.192 333.204 184.585 333.155 186.369C333.13 187.029 333.118 188.092 333.118 189.559C333.118 191.025 333.13 192.113 333.155 192.822C333.204 194.655 333.607 196.072 334.365 197.074C335.122 198.052 336.259 198.541 337.774 198.541Z" fill="#343836" fill-opacity="0.6"/>
<path d="M370.283 202.83C367.007 202.83 364.563 201.926 362.95 200.117C361.362 198.309 360.494 195.938 360.347 193.005C360.323 192.345 360.311 191.221 360.311 189.632C360.311 188.019 360.323 186.87 360.347 186.186C360.469 183.302 361.349 180.955 362.987 179.147C364.624 177.338 367.056 176.434 370.283 176.434C373.509 176.434 375.941 177.338 377.578 179.147C379.216 180.955 380.096 183.302 380.218 186.186C380.267 187.555 380.291 188.703 380.291 189.632C380.291 190.561 380.267 191.685 380.218 193.005C380.071 195.938 379.191 198.309 377.578 200.117C375.99 201.926 373.558 202.83 370.283 202.83ZM370.283 198.541C371.798 198.541 372.934 198.052 373.692 197.074C374.45 196.072 374.853 194.655 374.902 192.822C374.926 192.113 374.939 191.025 374.939 189.559C374.939 188.092 374.926 187.029 374.902 186.369C374.853 184.585 374.45 183.192 373.692 182.19C372.934 181.188 371.798 180.674 370.283 180.65C368.767 180.674 367.631 181.188 366.873 182.19C366.115 183.192 365.712 184.585 365.663 186.369C365.639 187.029 365.627 188.092 365.627 189.559C365.627 191.025 365.639 192.113 365.663 192.822C365.712 194.655 366.115 196.072 366.873 197.074C367.631 198.052 368.767 198.541 370.283 198.541Z" fill="#343836" fill-opacity="0.6"/>
<path d="M394.449 202.83C391.174 202.83 388.73 201.926 387.117 200.117C385.528 198.309 384.661 195.938 384.514 193.005C384.489 192.345 384.477 191.221 384.477 189.632C384.477 188.019 384.489 186.87 384.514 186.186C384.636 183.302 385.516 180.955 387.153 179.147C388.791 177.338 391.223 176.434 394.449 176.434C397.675 176.434 400.107 177.338 401.745 179.147C403.382 180.955 404.262 183.302 404.384 186.186C404.433 187.555 404.458 188.703 404.458 189.632C404.458 190.561 404.433 191.685 404.384 193.005C404.238 195.938 403.358 198.309 401.745 200.117C400.156 201.926 397.724 202.83 394.449 202.83ZM394.449 198.541C395.964 198.541 397.101 198.052 397.859 197.074C398.616 196.072 399.02 194.655 399.069 192.822C399.093 192.113 399.105 191.025 399.105 189.559C399.105 188.092 399.093 187.029 399.069 186.369C399.02 184.585 398.616 183.192 397.859 182.19C397.101 181.188 395.964 180.674 394.449 180.65C392.934 180.674 391.797 181.188 391.04 182.19C390.282 183.192 389.879 184.585 389.83 186.369C389.805 187.029 389.793 188.092 389.793 189.559C389.793 191.025 389.805 192.113 389.83 192.822C389.879 194.655 390.282 196.072 391.04 197.074C391.797 198.052 392.934 198.541 394.449 198.541Z" fill="#343836" fill-opacity="0.6"/>
<path d="M418.616 202.83C415.341 202.83 412.897 201.926 411.283 200.117C409.695 198.309 408.827 195.938 408.68 193.005C408.656 192.345 408.644 191.221 408.644 189.632C408.644 188.019 408.656 186.87 408.68 186.186C408.803 183.302 409.683 180.955 411.32 179.147C412.958 177.338 415.39 176.434 418.616 176.434C421.842 176.434 424.274 177.338 425.911 179.147C427.549 180.955 428.429 183.302 428.551 186.186C428.6 187.555 428.624 188.703 428.624 189.632C428.624 190.561 428.6 191.685 428.551 193.005C428.404 195.938 427.524 198.309 425.911 200.117C424.323 201.926 421.891 202.83 418.616 202.83ZM418.616 198.541C420.131 198.541 421.268 198.052 422.025 197.074C422.783 196.072 423.186 194.655 423.235 192.822C423.26 192.113 423.272 191.025 423.272 189.559C423.272 188.092 423.26 187.029 423.235 186.369C423.186 184.585 422.783 183.192 422.025 182.19C421.268 181.188 420.131 180.674 418.616 180.65C417.1 180.674 415.964 181.188 415.206 182.19C414.449 183.192 414.045 184.585 413.996 186.369C413.972 187.029 413.96 188.092 413.96 189.559C413.96 191.025 413.972 192.113 413.996 192.822C414.045 194.655 414.449 196.072 415.206 197.074C415.964 198.052 417.1 198.541 418.616 198.541Z" fill="#343836" fill-opacity="0.6"/>
<path d="M463.353 182.07L463.291 179.293L461.179 180.285L461.12 182.082C452.897 182.826 446.413 191.202 446.413 201.439C446.413 202.101 446.44 202.752 446.494 203.392H449.372C449.345 202.923 449.327 202.449 449.327 201.967C449.327 192.681 454.476 185.06 461.045 184.243L460.461 201.689L463.803 200.2L463.409 184.256C469.963 185.09 475.099 192.693 475.099 201.975C475.099 202.456 475.08 202.93 475.053 203.399H478.109C478.16 202.757 478.186 202.104 478.186 201.446C478.189 191.15 471.641 182.735 463.353 182.07Z" fill="#343836" fill-opacity="0.6"/>
<path d="M178.573 27.422L178.537 25.6634L177.302 26.292L177.268 27.4299C172.46 27.9014 168.67 33.2056 168.67 39.6885C168.67 40.1076 168.686 40.5199 168.717 40.9254H170.4C170.384 40.6284 170.373 40.3282 170.373 40.0233C170.373 34.1423 173.383 29.3158 177.224 28.7988L176.882 39.8473L178.836 38.9043L178.606 28.8066C182.437 29.3347 185.439 34.1501 185.439 40.028C185.439 40.3329 185.428 40.6331 185.412 40.9301H187.199C187.228 40.5231 187.244 40.1097 187.244 39.6933C187.246 33.1726 183.418 27.8432 178.573 27.422Z" fill="#343836" fill-opacity="0.3"/>
<path d="M70.6246 40.313C70.4679 40.313 70.3373 40.2608 70.2328 40.1563C70.1284 40.0344 70.0761 39.8951 70.0761 39.7384C70.0761 39.6861 70.0935 39.6078 70.1284 39.5033L76.3972 25.1634H68.2216C68.0475 25.1634 67.8995 25.1025 67.7776 24.9806C67.6557 24.8587 67.5947 24.7107 67.5947 24.5365V22.682C67.5947 22.4905 67.647 22.3338 67.7514 22.2119C67.8733 22.09 68.0301 22.029 68.2216 22.029H79.7144C79.9059 22.029 80.0627 22.09 80.1846 22.2119C80.3064 22.3338 80.3674 22.4905 80.3674 22.682V24.3276C80.3674 24.6933 80.2803 25.0676 80.1062 25.4507L73.8896 39.6861C73.7852 39.8777 73.672 40.0344 73.5501 40.1563C73.4282 40.2608 73.2628 40.313 73.0538 40.313H70.6246Z" fill="#343836" fill-opacity="0.3"/>
<path d="M89.6641 40.5742C87.3307 40.5742 85.5894 39.9299 84.4401 38.6413C83.3082 37.3527 82.69 35.6637 82.5856 33.5741C82.5681 33.1039 82.5594 32.3029 82.5594 31.171C82.5594 30.0217 82.5681 29.2033 82.5856 28.7157C82.6726 26.661 83.2995 24.9893 84.4662 23.7007C85.6329 22.4121 87.3655 21.7678 89.6641 21.7678C91.9626 21.7678 93.6953 22.4121 94.8619 23.7007C96.0286 24.9893 96.6555 26.661 96.7426 28.7157C96.7774 29.6909 96.7948 30.5093 96.7948 31.171C96.7948 31.8327 96.7774 32.6337 96.7426 33.5741C96.6381 35.6637 96.0112 37.3527 94.8619 38.6413C93.7301 39.9299 91.9975 40.5742 89.6641 40.5742ZM89.6641 37.5182C90.7437 37.5182 91.5534 37.1699 92.0932 36.4734C92.633 35.7594 92.9204 34.7495 92.9552 33.4435C92.9726 32.9385 92.9813 32.1636 92.9813 31.1188C92.9813 30.074 92.9726 29.3165 92.9552 28.8463C92.9204 27.5752 92.633 26.5826 92.0932 25.8687C91.5534 25.1547 90.7437 24.789 89.6641 24.7716C88.5844 24.789 87.7747 25.1547 87.2349 25.8687C86.6951 26.5826 86.4078 27.5752 86.373 28.8463C86.3555 29.3165 86.3468 30.074 86.3468 31.1188C86.3468 32.1636 86.3555 32.9385 86.373 33.4435C86.4078 34.7495 86.6951 35.7594 87.2349 36.4734C87.7747 37.1699 88.5844 37.5182 89.6641 37.5182Z" fill="#343836" fill-opacity="0.3"/>
<path d="M112.825 40.5742C110.492 40.5742 108.75 39.9299 107.601 38.6413C106.469 37.3527 105.851 35.6637 105.747 33.5741C105.729 33.1039 105.721 32.3029 105.721 31.171C105.721 30.0217 105.729 29.2033 105.747 28.7157C105.834 26.661 106.461 24.9893 107.627 23.7007C108.794 22.4121 110.527 21.7678 112.825 21.7678C115.124 21.7678 116.856 22.4121 118.023 23.7007C119.19 24.9893 119.817 26.661 119.904 28.7157C119.938 29.6909 119.956 30.5093 119.956 31.171C119.956 31.8327 119.938 32.6337 119.904 33.5741C119.799 35.6637 119.172 37.3527 118.023 38.6413C116.891 39.9299 115.159 40.5742 112.825 40.5742ZM112.825 37.5182C113.905 37.5182 114.714 37.1699 115.254 36.4734C115.794 35.7594 116.081 34.7495 116.116 33.4435C116.134 32.9385 116.142 32.1636 116.142 31.1188C116.142 30.074 116.134 29.3165 116.116 28.8463C116.081 27.5752 115.794 26.5826 115.254 25.8687C114.714 25.1547 113.905 24.789 112.825 24.7716C111.746 24.789 110.936 25.1547 110.396 25.8687C109.856 26.5826 109.569 27.5752 109.534 28.8463C109.517 29.3165 109.508 30.074 109.508 31.1188C109.508 32.1636 109.517 32.9385 109.534 33.4435C109.569 34.7495 109.856 35.7594 110.396 36.4734C110.936 37.1699 111.746 37.5182 112.825 37.5182Z" fill="#343836" fill-opacity="0.3"/>
<path d="M130.043 40.5742C127.71 40.5742 125.968 39.9299 124.819 38.6413C123.687 37.3527 123.069 35.6637 122.964 33.5741C122.947 33.1039 122.938 32.3029 122.938 31.171C122.938 30.0217 122.947 29.2033 122.964 28.7157C123.051 26.661 123.678 24.9893 124.845 23.7007C126.012 22.4121 127.744 21.7678 130.043 21.7678C132.341 21.7678 134.074 22.4121 135.241 23.7007C136.407 24.9893 137.034 26.661 137.121 28.7157C137.156 29.6909 137.174 30.5093 137.174 31.171C137.174 31.8327 137.156 32.6337 137.121 33.5741C137.017 35.6637 136.39 37.3527 135.241 38.6413C134.109 39.9299 132.376 40.5742 130.043 40.5742ZM130.043 37.5182C131.123 37.5182 131.932 37.1699 132.472 36.4734C133.012 35.7594 133.299 34.7495 133.334 33.4435C133.351 32.9385 133.36 32.1636 133.36 31.1188C133.36 30.074 133.351 29.3165 133.334 28.8463C133.299 27.5752 133.012 26.5826 132.472 25.8687C131.932 25.1547 131.123 24.789 130.043 24.7716C128.963 24.789 128.154 25.1547 127.614 25.8687C127.074 26.5826 126.787 27.5752 126.752 28.8463C126.734 29.3165 126.726 30.074 126.726 31.1188C126.726 32.1636 126.734 32.9385 126.752 33.4435C126.787 34.7495 127.074 35.7594 127.614 36.4734C128.154 37.1699 128.963 37.5182 130.043 37.5182Z" fill="#343836" fill-opacity="0.3"/>
<path d="M147.261 40.5742C144.927 40.5742 143.186 39.9299 142.037 38.6413C140.905 37.3527 140.287 35.6637 140.182 33.5741C140.165 33.1039 140.156 32.3029 140.156 31.171C140.156 30.0217 140.165 29.2033 140.182 28.7157C140.269 26.661 140.896 24.9893 142.063 23.7007C143.229 22.4121 144.962 21.7678 147.261 21.7678C149.559 21.7678 151.292 22.4121 152.459 23.7007C153.625 24.9893 154.252 26.661 154.339 28.7157C154.374 29.6909 154.391 30.5093 154.391 31.171C154.391 31.8327 154.374 32.6337 154.339 33.5741C154.235 35.6637 153.608 37.3527 152.459 38.6413C151.327 39.9299 149.594 40.5742 147.261 40.5742ZM147.261 37.5182C148.34 37.5182 149.15 37.1699 149.69 36.4734C150.23 35.7594 150.517 34.7495 150.552 33.4435C150.569 32.9385 150.578 32.1636 150.578 31.1188C150.578 30.074 150.569 29.3165 150.552 28.8463C150.517 27.5752 150.23 26.5826 149.69 25.8687C149.15 25.1547 148.34 24.789 147.261 24.7716C146.181 24.789 145.371 25.1547 144.832 25.8687C144.292 26.5826 144.004 27.5752 143.97 28.8463C143.952 29.3165 143.943 30.074 143.943 31.1188C143.943 32.1636 143.952 32.9385 143.97 33.4435C144.004 34.7495 144.292 35.7594 144.832 36.4734C145.371 37.1699 146.181 37.5182 147.261 37.5182Z" fill="#343836" fill-opacity="0.3"/>
<path d="M455.506 104.702C455.37 104.702 455.254 104.654 455.158 104.559C455.063 104.463 455.015 104.348 455.015 104.211V93.6585L451.927 96.0308C451.845 96.099 451.743 96.1331 451.62 96.1331C451.457 96.1331 451.327 96.0649 451.232 95.9286L450.352 94.7833C450.284 94.6879 450.25 94.5924 450.25 94.497C450.25 94.3334 450.325 94.197 450.475 94.088L455.056 90.5295C455.206 90.4341 455.377 90.3863 455.568 90.3863H457.408C457.544 90.3863 457.66 90.4341 457.756 90.5295C457.851 90.6249 457.899 90.7408 457.899 90.8772V104.211C457.899 104.348 457.851 104.463 457.756 104.559C457.66 104.654 457.544 104.702 457.408 104.702H455.506Z" fill="#343836" fill-opacity="0.1"/>
<path d="M466.056 104.907C464.229 104.907 462.866 104.402 461.966 103.393C461.08 102.384 460.596 101.062 460.514 99.4257C460.5 99.0576 460.493 98.4304 460.493 97.5442C460.493 96.6443 460.5 96.0035 460.514 95.6218C460.582 94.013 461.073 92.7041 461.986 91.6952C462.9 90.6863 464.256 90.1818 466.056 90.1818C467.856 90.1818 469.212 90.6863 470.126 91.6952C471.039 92.7041 471.53 94.013 471.598 95.6218C471.626 96.3853 471.639 97.0261 471.639 97.5442C471.639 98.0623 471.626 98.6895 471.598 99.4257C471.517 101.062 471.026 102.384 470.126 103.393C469.24 104.402 467.883 104.907 466.056 104.907ZM466.056 102.514C466.901 102.514 467.535 102.241 467.958 101.696C468.381 101.137 468.606 100.346 468.633 99.3234C468.647 98.928 468.653 98.3213 468.653 97.5033C468.653 96.6853 468.647 96.0922 468.633 95.7241C468.606 94.7288 468.381 93.9516 467.958 93.3926C467.535 92.8336 466.901 92.5473 466.056 92.5337C465.211 92.5473 464.577 92.8336 464.154 93.3926C463.732 93.9516 463.507 94.7288 463.479 95.7241C463.466 96.0922 463.459 96.6853 463.459 97.5033C463.459 98.3213 463.466 98.928 463.479 99.3234C463.507 100.346 463.732 101.137 464.154 101.696C464.577 102.241 465.211 102.514 466.056 102.514Z" fill="#343836" fill-opacity="0.1"/>
<path d="M484.19 104.907C482.364 104.907 481 104.402 480.1 103.393C479.214 102.384 478.73 101.062 478.648 99.4257C478.635 99.0576 478.628 98.4304 478.628 97.5442C478.628 96.6443 478.635 96.0035 478.648 95.6218C478.716 94.013 479.207 92.7041 480.121 91.6952C481.034 90.6863 482.391 90.1818 484.19 90.1818C485.99 90.1818 487.347 90.6863 488.26 91.6952C489.174 92.7041 489.665 94.013 489.733 95.6218C489.76 96.3853 489.774 97.0261 489.774 97.5442C489.774 98.0623 489.76 98.6895 489.733 99.4257C489.651 101.062 489.16 102.384 488.26 103.393C487.374 104.402 486.017 104.907 484.19 104.907ZM484.19 102.514C485.036 102.514 485.67 102.241 486.092 101.696C486.515 101.137 486.74 100.346 486.767 99.3234C486.781 98.928 486.788 98.3213 486.788 97.5033C486.788 96.6853 486.781 96.0922 486.767 95.7241C486.74 94.7288 486.515 93.9516 486.092 93.3926C485.67 92.8336 485.036 92.5473 484.19 92.5337C483.345 92.5473 482.711 92.8336 482.289 93.3926C481.866 93.9516 481.641 94.7288 481.614 95.7241C481.6 96.0922 481.593 96.6853 481.593 97.5033C481.593 98.3213 481.6 98.928 481.614 99.3234C481.641 100.346 481.866 101.137 482.289 101.696C482.711 102.241 483.345 102.514 484.19 102.514Z" fill="#343836" fill-opacity="0.1"/>
<path d="M497.671 104.907C495.844 104.907 494.481 104.402 493.581 103.393C492.695 102.384 492.211 101.062 492.129 99.4257C492.116 99.0576 492.109 98.4304 492.109 97.5442C492.109 96.6443 492.116 96.0035 492.129 95.6218C492.197 94.013 492.688 92.7041 493.602 91.6952C494.515 90.6863 495.872 90.1818 497.671 90.1818C499.471 90.1818 500.828 90.6863 501.741 91.6952C502.655 92.7041 503.145 94.013 503.214 95.6218C503.241 96.3853 503.255 97.0261 503.255 97.5442C503.255 98.0623 503.241 98.6895 503.214 99.4257C503.132 101.062 502.641 102.384 501.741 103.393C500.855 104.402 499.498 104.907 497.671 104.907ZM497.671 102.514C498.517 102.514 499.151 102.241 499.573 101.696C499.996 101.137 500.221 100.346 500.248 99.3234C500.262 98.928 500.269 98.3213 500.269 97.5033C500.269 96.6853 500.262 96.0922 500.248 95.7241C500.221 94.7288 499.996 93.9516 499.573 93.3926C499.151 92.8336 498.517 92.5473 497.671 92.5337C496.826 92.5473 496.192 92.8336 495.769 93.3926C495.347 93.9516 495.122 94.7288 495.095 95.7241C495.081 96.0922 495.074 96.6853 495.074 97.5033C495.074 98.3213 495.081 98.928 495.095 99.3234C495.122 100.346 495.347 101.137 495.769 101.696C496.192 102.241 496.826 102.514 497.671 102.514Z" fill="#343836" fill-opacity="0.1"/>
<path d="M511.152 104.907C509.325 104.907 507.962 104.402 507.062 103.393C506.176 102.384 505.692 101.062 505.61 99.4257C505.596 99.0576 505.59 98.4304 505.59 97.5442C505.59 96.6443 505.596 96.0035 505.61 95.6218C505.678 94.013 506.169 92.7041 507.083 91.6952C507.996 90.6863 509.353 90.1818 511.152 90.1818C512.952 90.1818 514.309 90.6863 515.222 91.6952C516.136 92.7041 516.626 94.013 516.695 95.6218C516.722 96.3853 516.735 97.0261 516.735 97.5442C516.735 98.0623 516.722 98.6895 516.695 99.4257C516.613 101.062 516.122 102.384 515.222 103.393C514.336 104.402 512.979 104.907 511.152 104.907ZM511.152 102.514C511.998 102.514 512.632 102.241 513.054 101.696C513.477 101.137 513.702 100.346 513.729 99.3234C513.743 98.928 513.75 98.3213 513.75 97.5033C513.75 96.6853 513.743 96.0922 513.729 95.7241C513.702 94.7288 513.477 93.9516 513.054 93.3926C512.632 92.8336 511.998 92.5473 511.152 92.5337C510.307 92.5473 509.673 92.8336 509.25 93.3926C508.828 93.9516 508.603 94.7288 508.575 95.7241C508.562 96.0922 508.555 96.6853 508.555 97.5033C508.555 98.3213 508.562 98.928 508.575 99.3234C508.603 100.346 508.828 101.137 509.25 101.696C509.673 102.241 510.307 102.514 511.152 102.514Z" fill="#343836" fill-opacity="0.1"/>
<g clip-path="url(#clip9)">
<path d="M537.017 92.9392L536.985 91.4079L535.897 91.9553L535.867 92.9461C531.632 93.3566 528.294 97.9751 528.294 103.62C528.294 103.985 528.308 104.344 528.335 104.697H529.817C529.804 104.438 529.794 104.177 529.794 103.911C529.794 98.7907 532.445 94.5882 535.828 94.138L535.527 103.758L537.248 102.937L537.046 94.1448C540.42 94.6046 543.065 98.7976 543.065 103.916C543.065 104.181 543.055 104.442 543.041 104.701H544.614C544.641 104.347 544.655 103.987 544.655 103.624C544.656 97.9464 541.284 93.306 537.017 92.9392Z" fill="#343836" fill-opacity="0.1"/>
</g>
<path d="M446.203 45.789L446.167 44.0304L444.932 44.659L444.897 45.7969C440.09 46.2684 436.3 51.5726 436.3 58.0556C436.3 58.4747 436.315 58.887 436.347 59.2924H438.029C438.014 58.9954 438.003 58.6952 438.003 58.3903C438.003 52.5093 441.013 47.6828 444.853 47.1658L444.512 58.2143L446.466 57.2713L446.235 47.1736C450.067 47.7017 453.069 52.5172 453.069 58.395C453.069 58.6999 453.058 59.0001 453.042 59.2972H454.828C454.858 58.8901 454.874 58.4768 454.874 58.0603C454.875 51.5396 451.047 46.2102 446.203 45.789Z" fill="#343836" fill-opacity="0.3"/>
<path d="M336.421 58.6437C336.265 58.6437 336.134 58.5914 336.029 58.4869C335.925 58.3651 335.873 58.2257 335.873 58.069C335.873 58.0168 335.89 57.9384 335.925 57.8339L342.194 43.4941H334.018C333.844 43.4941 333.696 43.4331 333.574 43.3112C333.452 43.1893 333.391 43.0413 333.391 42.8672V41.0127C333.391 40.8211 333.444 40.6644 333.548 40.5425C333.67 40.4206 333.827 40.3597 334.018 40.3597H345.511C345.703 40.3597 345.859 40.4206 345.981 40.5425C346.103 40.6644 346.164 40.8211 346.164 41.0127V42.6582C346.164 43.0239 346.077 43.3983 345.903 43.7814L339.686 58.0168C339.582 58.2083 339.469 58.3651 339.347 58.4869C339.225 58.5914 339.059 58.6437 338.85 58.6437H336.421Z" fill="#343836" fill-opacity="0.3"/>
<path d="M355.461 58.9049C353.127 58.9049 351.386 58.2606 350.237 56.972C349.105 55.6834 348.487 53.9943 348.382 51.9047C348.365 51.4346 348.356 50.6335 348.356 49.5017C348.356 48.3524 348.365 47.534 348.382 47.0464C348.469 44.9916 349.096 43.3199 350.263 42.0314C351.43 40.7428 353.162 40.0985 355.461 40.0985C357.759 40.0985 359.492 40.7428 360.659 42.0314C361.825 43.3199 362.452 44.9916 362.539 47.0464C362.574 48.0215 362.591 48.84 362.591 49.5017C362.591 50.1634 362.574 50.9644 362.539 51.9047C362.435 53.9943 361.808 55.6834 360.659 56.972C359.527 58.2606 357.794 58.9049 355.461 58.9049ZM355.461 55.8488C356.54 55.8488 357.35 55.5006 357.89 54.804C358.43 54.0901 358.717 53.0801 358.752 51.7741C358.769 51.2691 358.778 50.4942 358.778 49.4494C358.778 48.4046 358.769 47.6472 358.752 47.177C358.717 45.9058 358.43 44.9133 357.89 44.1993C357.35 43.4854 356.54 43.1197 355.461 43.1023C354.381 43.1197 353.571 43.4854 353.032 44.1993C352.492 44.9133 352.204 45.9058 352.17 47.177C352.152 47.6472 352.143 48.4046 352.143 49.4494C352.143 50.4942 352.152 51.2691 352.17 51.7741C352.204 53.0801 352.492 54.0901 353.032 54.804C353.571 55.5006 354.381 55.8488 355.461 55.8488Z" fill="#343836" fill-opacity="0.3"/>
<path d="M378.622 58.9049C376.288 58.9049 374.547 58.2606 373.398 56.972C372.266 55.6834 371.648 53.9943 371.543 51.9047C371.526 51.4346 371.517 50.6335 371.517 49.5017C371.517 48.3524 371.526 47.534 371.543 47.0464C371.63 44.9916 372.257 43.3199 373.424 42.0314C374.591 40.7428 376.323 40.0985 378.622 40.0985C380.92 40.0985 382.653 40.7428 383.82 42.0314C384.986 43.3199 385.613 44.9916 385.7 47.0464C385.735 48.0215 385.753 48.84 385.753 49.5017C385.753 50.1634 385.735 50.9644 385.7 51.9047C385.596 53.9943 384.969 55.6834 383.82 56.972C382.688 58.2606 380.955 58.9049 378.622 58.9049ZM378.622 55.8488C379.701 55.8488 380.511 55.5006 381.051 54.804C381.591 54.0901 381.878 53.0801 381.913 51.7741C381.93 51.2691 381.939 50.4942 381.939 49.4494C381.939 48.4046 381.93 47.6472 381.913 47.177C381.878 45.9058 381.591 44.9133 381.051 44.1993C380.511 43.4854 379.701 43.1197 378.622 43.1023C377.542 43.1197 376.732 43.4854 376.193 44.1993C375.653 44.9133 375.365 45.9058 375.331 47.177C375.313 47.6472 375.305 48.4046 375.305 49.4494C375.305 50.4942 375.313 51.2691 375.331 51.7741C375.365 53.0801 375.653 54.0901 376.193 54.804C376.732 55.5006 377.542 55.8488 378.622 55.8488Z" fill="#343836" fill-opacity="0.3"/>
<path d="M395.84 58.9049C393.506 58.9049 391.765 58.2606 390.616 56.972C389.484 55.6834 388.865 53.9943 388.761 51.9047C388.744 51.4346 388.735 50.6335 388.735 49.5017C388.735 48.3524 388.744 47.534 388.761 47.0464C388.848 44.9916 389.475 43.3199 390.642 42.0314C391.808 40.7428 393.541 40.0985 395.84 40.0985C398.138 40.0985 399.871 40.7428 401.037 42.0314C402.204 43.3199 402.831 44.9916 402.918 47.0464C402.953 48.0215 402.97 48.84 402.97 49.5017C402.97 50.1634 402.953 50.9644 402.918 51.9047C402.814 53.9943 402.187 55.6834 401.037 56.972C399.906 58.2606 398.173 58.9049 395.84 58.9049ZM395.84 55.8488C396.919 55.8488 397.729 55.5006 398.269 54.804C398.809 54.0901 399.096 53.0801 399.131 51.7741C399.148 51.2691 399.157 50.4942 399.157 49.4494C399.157 48.4046 399.148 47.6472 399.131 47.177C399.096 45.9058 398.809 44.9133 398.269 44.1993C397.729 43.4854 396.919 43.1197 395.84 43.1023C394.76 43.1197 393.95 43.4854 393.41 44.1993C392.871 44.9133 392.583 45.9058 392.548 47.177C392.531 47.6472 392.522 48.4046 392.522 49.4494C392.522 50.4942 392.531 51.2691 392.548 51.7741C392.583 53.0801 392.871 54.0901 393.41 54.804C393.95 55.5006 394.76 55.8488 395.84 55.8488Z" fill="#343836" fill-opacity="0.3"/>
<path d="M413.057 58.9049C410.724 58.9049 408.983 58.2606 407.833 56.972C406.701 55.6834 406.083 53.9943 405.979 51.9047C405.961 51.4346 405.953 50.6335 405.953 49.5017C405.953 48.3524 405.961 47.534 405.979 47.0464C406.066 44.9916 406.693 43.3199 407.859 42.0314C409.026 40.7428 410.759 40.0985 413.057 40.0985C415.356 40.0985 417.088 40.7428 418.255 42.0314C419.422 43.3199 420.049 44.9916 420.136 47.0464C420.171 48.0215 420.188 48.84 420.188 49.5017C420.188 50.1634 420.171 50.9644 420.136 51.9047C420.031 53.9943 419.404 55.6834 418.255 56.972C417.123 58.2606 415.391 58.9049 413.057 58.9049ZM413.057 55.8488C414.137 55.8488 414.947 55.5006 415.486 54.804C416.026 54.0901 416.314 53.0801 416.348 51.7741C416.366 51.2691 416.375 50.4942 416.375 49.4494C416.375 48.4046 416.366 47.6472 416.348 47.177C416.314 45.9058 416.026 44.9133 415.486 44.1993C414.947 43.4854 414.137 43.1197 413.057 43.1023C411.978 43.1197 411.168 43.4854 410.628 44.1993C410.088 44.9133 409.801 45.9058 409.766 47.177C409.749 47.6472 409.74 48.4046 409.74 49.4494C409.74 50.4942 409.749 51.2691 409.766 51.7741C409.801 53.0801 410.088 54.0901 410.628 54.804C411.168 55.5006 411.978 55.8488 413.057 55.8488Z" fill="#343836" fill-opacity="0.3"/>
<defs>
<clipPath id="clip0">
<rect width="50.4097" height="40.0986" fill="white" transform="translate(384.947 105.402)"/>
</clipPath>
<clipPath id="clip1">
<rect width="20.778" height="16.4791" fill="white" transform="translate(289.639 63.9273)"/>
</clipPath>
<clipPath id="clip2">
<rect width="21.7163" height="17.9395" fill="white" transform="translate(286.218 226.843)"/>
</clipPath>
<clipPath id="clip3">
<rect width="18.3308" height="17.1851" fill="white" transform="translate(79.7385 118.005)"/>
</clipPath>
<clipPath id="clip4">
<rect width="16.3608" height="15.3383" fill="white" transform="translate(315.198)"/>
</clipPath>
<clipPath id="clip5">
<rect width="16.3608" height="15.3383" fill="white" transform="translate(488.195 226.843)"/>
</clipPath>
<clipPath id="clip6">
<rect width="11.4002" height="10.6877" fill="white" transform="translate(523.378 129.461)"/>
</clipPath>
<clipPath id="clip7">
<rect width="11.4002" height="10.6877" fill="white" transform="translate(80.0022 80.1971)"/>
</clipPath>
<clipPath id="clip8">
<rect width="21.8709" height="21.1418" fill="white" transform="translate(189.747 181.017)"/>
</clipPath>
<clipPath id="clip9">
<rect width="16.3608" height="15.3383" fill="white" transform="translate(528.294 89.3628)"/>
</clipPath>
</defs>
</svg>
